<svg width="324" height="229" viewBox="0 0 324 229" fill="none" xmlns="http://www.w3.org/2000/svg">
<g clip-path="url(#clip0_218_1430)">
<g opacity="0.15">
<path d="M156.131 206.571L151.075 208.645L156.871 222.77L161.927 220.696L156.131 206.571Z" fill="#81D8D0"/>
</g>
<g opacity="0.2">
<path d="M139.264 209.39L133.898 210.427L137.196 227.486L142.561 226.449L139.264 209.39Z" fill="#81D8D0"/>
</g>
<g opacity="0.25">
<path d="M122.965 211.001L117.501 211.056L117.681 228.835L123.145 228.78L122.965 211.001Z" fill="#81D8D0"/>
</g>
<g opacity="0.3">
<path d="M101.917 208.233L98.6838 227.007L104.076 227.935L107.309 209.161L101.917 208.233Z" fill="#81D8D0"/>
</g>
<g opacity="0.35">
<path d="M87.6984 202.501L80.3645 222.274L85.488 224.174L92.8218 204.401L87.6984 202.501Z" fill="#81D8D0"/>
</g>
<g opacity="0.4">
<path d="M75.2396 194.18L62.9741 214.577L67.6572 217.393L79.9227 196.996L75.2396 194.18Z" fill="#81D8D0"/>
</g>
<g opacity="0.45">
<path d="M50.8214 207.617L46.7505 203.964L64.8741 183.823L68.9381 187.475L50.8214 207.617Z" fill="#81D8D0"/>
</g>
<g opacity="0.5">
<path d="M35.2516 194.683L31.9771 190.303L56.7391 171.72L60.0137 176.099L35.2516 194.683Z" fill="#81D8D0"/>
</g>
<g opacity="0.55">
<path d="M50.9727 158.06L19.0686 173.422L21.4392 178.345L53.3433 162.984L50.9727 158.06Z" fill="#81D8D0"/>
</g>
<g opacity="0.6">
<path d="M47.9724 143.393L9.04199 153.693L10.4397 158.976L49.3701 148.676L47.9724 143.393Z" fill="#81D8D0"/>
</g>
<g opacity="0.65">
<path d="M47.8778 129.099L2.88477 132.53L3.30072 137.985L48.2937 134.555L47.8778 129.099Z" fill="#81D8D0"/>
</g>
<g opacity="0.7">
<path d="M0.780008 110.477L0.227783 115.914L49.7646 120.946L50.3169 115.509L0.780008 110.477Z" fill="#81D8D0"/>
</g>
<g opacity="0.75">
<path d="M2.81789 88.2111L1.33276 93.47L53.5315 108.211L55.0166 102.952L2.81789 88.2111Z" fill="#81D8D0"/>
</g>
<g opacity="0.8">
<path d="M9.09742 66.4322L6.7251 71.3549L59.2671 96.6755L61.6394 91.7528L9.09742 66.4322Z" fill="#81D8D0"/>
</g>
<g opacity="0.85">
<path d="M19.6493 45.9443L16.4451 50.3708L66.5601 86.6481L69.7644 82.2216L19.6493 45.9443Z" fill="#81D8D0"/>
</g>
<g opacity="0.9">
<path d="M34.3721 27.5076L30.4128 31.274L75.0463 78.1929L79.0055 74.4265L34.3721 27.5076Z" fill="#81D8D0"/>
</g>
<g opacity="0.95">
<path d="M53.0201 11.954L48.4165 14.8982L84.4969 71.3155L89.1005 68.3714L53.0201 11.954Z" fill="#81D8D0"/>
</g>
<path d="M75.2443 0.18068L70.1531 2.16568L95.0079 65.9151L100.099 63.9301L75.2443 0.18068Z" fill="#81D8D0"/>
<path d="M115.929 148.434C115.929 140.868 112.037 136.488 101.561 132.267L97.524 130.667C89.0457 127.228 86.1899 124.365 86.1899 119.305C86.1899 113.161 90.2471 109.193 96.5285 109.193C104.293 109.193 109.599 113.903 110.382 121.482L110.423 121.852H112.888V111.067L112.696 110.944C110.046 109.269 105.11 106.152 96.6864 106.152C87.1784 106.152 80.794 112.049 80.794 120.823C80.794 130.221 88.2082 133.942 95.1624 136.688L99.1304 138.287C107.554 141.672 110.54 144.706 110.54 149.875C110.54 156.809 105.13 161.285 96.7688 161.285C88.4073 161.285 82.977 156.239 82.2288 147.781L82.1944 147.404H79.8054V158.923L79.9633 159.047C82.4484 161.017 87.913 164.319 96.6178 164.319C108.178 164.319 115.943 157.935 115.943 148.427L115.929 148.434Z" fill="#F9F9F9"/>
<path d="M150.439 121.557C143.231 121.557 135.721 128.127 130.098 139.248L133.915 122.477L132.474 121.921L121.194 124.523L120.721 126.651H127.442L118.318 170.463C117.432 174.665 116.08 175.715 111.062 176.086L110.78 176.106L110.156 178.234L128.739 177.273L129.226 175.207L128.746 175.173C126.151 174.967 124.531 174.788 123.927 173.985C123.501 173.415 123.48 172.413 123.851 170.635L125.904 160.811C128.245 163.173 131.197 164.326 134.89 164.326C149.897 164.326 159.48 145.88 159.48 133.18C159.48 125.683 156.275 121.557 150.453 121.557H150.439ZM153.309 134.017C153.309 144.747 145.593 161.292 135.343 161.292C131.766 161.292 128.801 159.383 126.961 155.903L126.975 155.855C130.977 139.77 140.766 125.662 147.927 125.662C151.895 125.662 153.309 129.98 153.309 134.024V134.017Z" fill="#F9F9F9"/>
<path d="M201.638 156.363V136.379C201.638 126.541 197.032 121.55 187.956 121.55C181.421 121.55 176.135 124.605 173.19 129.994V105.15H171.556L160.998 107.127V109.145L161.375 109.173C166.222 109.537 167.478 110.807 167.478 115.324V156.356C167.478 160.413 166.325 160.914 161.375 161.285L160.991 161.312V163.406H179.581V161.319L179.204 161.292C174.323 160.921 173.176 160.42 173.176 156.363V139.969C173.176 131.642 178.901 125.36 186.494 125.36C192.625 125.36 195.995 129.493 195.995 136.996V156.369C195.995 160.42 194.856 160.921 189.968 161.299L189.59 161.326V163.413H208.105V161.319L207.721 161.292C202.778 160.921 201.618 160.427 201.618 156.363H201.638Z" fill="#F9F9F9"/>
<path d="M242.822 153.699C239.094 159.452 232.545 160.07 229.895 160.07C221.032 160.07 215.739 153.356 215.739 142.104C215.739 141.63 215.739 141.102 215.773 140.607H245.224L245.245 140.223C245.609 134.319 244.16 129.452 241.057 126.15C238.229 123.143 234.103 121.557 229.126 121.557C217.476 121.557 209.65 130.365 209.65 143.477C209.65 156.589 217.023 164.326 228.439 164.326C235.654 164.326 241.634 161.058 245.265 155.127L245.485 154.763L243.021 153.369L242.808 153.692L242.822 153.699ZM216.034 137.649C217.263 129.273 221.876 124.289 228.453 124.289C235.03 124.289 239.053 129.15 239.389 137.649H216.034Z" fill="#F9F9F9"/>
<path d="M271.38 121.935C266.849 121.935 262.654 124.365 260.43 128.202V122.093H259.256L248.698 124.07V126.17L249.082 126.191C253.922 126.486 255.178 127.749 255.178 132.335V156.356C255.178 160.413 254.025 160.914 249.075 161.285L248.691 161.312V163.406H268.043V161.312L267.659 161.285C262.098 160.907 260.801 160.413 260.801 156.356V134.546C260.801 129.061 264.92 127.104 268.778 127.104C269.959 127.104 271.181 127.337 272.588 127.832L276.034 129.26L276.22 128.971C276.92 127.88 277.277 126.802 277.277 125.772C277.277 123.912 275.725 121.928 271.373 121.928L271.38 121.935Z" fill="#F9F9F9"/>
<path d="M314.519 157.839L314.162 158.079C312.844 158.958 311.849 159.383 311.114 159.383C310.297 159.383 309.467 158.882 309.467 155.141V136.454C309.467 126.569 304.737 121.55 295.407 121.55C286.757 121.55 280.737 126.067 280.737 130.125C280.737 131.91 281.773 132.994 283.826 133.351L284.135 133.406L285.192 131.209C287.169 126.754 290.217 124.591 294.501 124.591C300.57 124.591 303.776 128.772 303.776 136.688V142.166C301.242 141.843 298.929 141.692 296.712 141.692C284.918 141.692 278.149 146.12 278.149 153.85C278.149 160.317 282.837 164.326 290.382 164.326C296.423 164.326 301.112 161.628 303.776 156.678C303.817 159.843 304.4 163.797 308.3 163.797C311.018 163.797 313.902 161.8 315.535 160.083L315.755 159.857L314.526 157.845L314.519 157.839ZM303.762 144.967V146.141C303.762 154.653 298.902 160.832 292.201 160.832C287.204 160.832 284.224 157.852 284.224 152.855C284.224 147.102 288.24 144.418 296.856 144.418C299.149 144.418 301.469 144.603 303.762 144.967Z" fill="#F9F9F9"/>
</g>
<defs>
<clipPath id="clip0_218_1430">
<rect width="324" height="228.632" fill="white" transform="translate(0 0.184174)"/>
</clipPath>
</defs>
</svg>
