<svg width="546" height="75" viewBox="0 0 546 75" fill="none" xmlns="http://www.w3.org/2000/svg">
<path d="M4.624 22.192C3.71733 22.192 2.944 22.0213 2.304 21.68C1.664 21.328 1.12 20.848 0.672 20.24L1.664 19.408C2.05867 19.9307 2.496 20.3307 2.976 20.608C3.456 20.8747 4.02133 21.008 4.672 21.008C5.472 21.008 6.08 20.816 6.496 20.432C6.92267 20.048 7.136 19.536 7.136 18.896C7.136 18.3627 6.976 17.952 6.656 17.664C6.336 17.376 5.808 17.1467 5.072 16.976L4.16 16.768C3.136 16.5333 2.352 16.1813 1.808 15.712C1.27467 15.232 1.008 14.56 1.008 13.696C1.008 13.2053 1.09867 12.768 1.28 12.384C1.46133 12 1.712 11.68 2.032 11.424C2.36267 11.168 2.752 10.976 3.2 10.848C3.65867 10.7093 4.16 10.64 4.704 10.64C5.54667 10.64 6.26667 10.7947 6.864 11.104C7.472 11.4133 7.984 11.8667 8.4 12.464L7.392 13.2C7.08267 12.7733 6.70933 12.4373 6.272 12.192C5.83467 11.9467 5.29067 11.824 4.64 11.824C3.92533 11.824 3.36 11.9787 2.944 12.288C2.53867 12.5867 2.336 13.04 2.336 13.648C2.336 14.1813 2.50667 14.5867 2.848 14.864C3.2 15.1307 3.728 15.344 4.432 15.504L5.344 15.712C6.44267 15.9573 7.23733 16.3307 7.728 16.832C8.21867 17.3333 8.464 18 8.464 18.832C8.464 19.344 8.37333 19.808 8.192 20.224C8.02133 20.64 7.77067 20.992 7.44 21.28C7.10933 21.568 6.704 21.792 6.224 21.952C5.75467 22.112 5.22133 22.192 4.624 22.192ZM13.7609 22.192C13.1955 22.192 12.6835 22.0907 12.2249 21.888C11.7769 21.6853 11.3875 21.3973 11.0569 21.024C10.7369 20.64 10.4862 20.1867 10.3049 19.664C10.1342 19.1307 10.0489 18.5333 10.0489 17.872C10.0489 17.2213 10.1342 16.6293 10.3049 16.096C10.4862 15.5627 10.7369 15.1093 11.0569 14.736C11.3875 14.352 11.7769 14.0587 12.2249 13.856C12.6835 13.6533 13.1955 13.552 13.7609 13.552C14.3155 13.552 14.8115 13.6533 15.2489 13.856C15.6862 14.0587 16.0595 14.3413 16.3689 14.704C16.6782 15.056 16.9129 15.4773 17.0729 15.968C17.2435 16.4587 17.3289 16.9973 17.3289 17.584V18.192H11.3929V18.576C11.3929 18.928 11.4462 19.2587 11.5529 19.568C11.6702 19.8667 11.8302 20.128 12.0329 20.352C12.2462 20.576 12.5022 20.752 12.8009 20.88C13.1102 21.008 13.4569 21.072 13.8409 21.072C14.3635 21.072 14.8169 20.9493 15.2009 20.704C15.5955 20.4587 15.8995 20.1067 16.1129 19.648L17.0249 20.304C16.7582 20.8693 16.3422 21.328 15.7769 21.68C15.2115 22.0213 14.5395 22.192 13.7609 22.192ZM13.7609 14.624C13.4089 14.624 13.0889 14.688 12.8009 14.816C12.5129 14.9333 12.2622 15.104 12.0489 15.328C11.8462 15.552 11.6862 15.8187 11.5689 16.128C11.4515 16.4267 11.3929 16.7573 11.3929 17.12V17.232H15.9529V17.056C15.9529 16.32 15.7502 15.7333 15.3449 15.296C14.9502 14.848 14.4222 14.624 13.7609 14.624ZM20.7981 22C20.3501 22 20.0088 21.8773 19.7741 21.632C19.5501 21.376 19.4381 21.056 19.4381 20.672V10.16H20.7181V20.88H21.9341V22H20.7981ZM26.9015 22.192C26.3362 22.192 25.8242 22.0907 25.3655 21.888C24.9175 21.6853 24.5282 21.3973 24.1975 21.024C23.8775 20.64 23.6268 20.1867 23.4455 19.664C23.2748 19.1307 23.1895 18.5333 23.1895 17.872C23.1895 17.2213 23.2748 16.6293 23.4455 16.096C23.6268 15.5627 23.8775 15.1093 24.1975 14.736C24.5282 14.352 24.9175 14.0587 25.3655 13.856C25.8242 13.6533 26.3362 13.552 26.9015 13.552C27.4562 13.552 27.9522 13.6533 28.3895 13.856C28.8268 14.0587 29.2002 14.3413 29.5095 14.704C29.8188 15.056 30.0535 15.4773 30.2135 15.968C30.3842 16.4587 30.4695 16.9973 30.4695 17.584V18.192H24.5335V18.576C24.5335 18.928 24.5868 19.2587 24.6935 19.568C24.8108 19.8667 24.9708 20.128 25.1735 20.352C25.3868 20.576 25.6428 20.752 25.9415 20.88C26.2508 21.008 26.5975 21.072 26.9815 21.072C27.5042 21.072 27.9575 20.9493 28.3415 20.704C28.7362 20.4587 29.0402 20.1067 29.2535 19.648L30.1655 20.304C29.8988 20.8693 29.4828 21.328 28.9175 21.68C28.3522 22.0213 27.6802 22.192 26.9015 22.192ZM26.9015 14.624C26.5495 14.624 26.2295 14.688 25.9415 14.816C25.6535 14.9333 25.4028 15.104 25.1895 15.328C24.9868 15.552 24.8268 15.8187 24.7095 16.128C24.5922 16.4267 24.5335 16.7573 24.5335 17.12V17.232H29.0935V17.056C29.0935 16.32 28.8908 15.7333 28.4855 15.296C28.0908 14.848 27.5628 14.624 26.9015 14.624ZM35.6508 22.192C35.0748 22.192 34.5574 22.0907 34.0988 21.888C33.6401 21.6853 33.2508 21.3973 32.9308 21.024C32.6214 20.6507 32.3814 20.1973 32.2108 19.664C32.0508 19.1307 31.9708 18.5333 31.9708 17.872C31.9708 17.2107 32.0508 16.6133 32.2108 16.08C32.3814 15.5467 32.6214 15.0933 32.9308 14.72C33.2508 14.3467 33.6401 14.0587 34.0988 13.856C34.5574 13.6533 35.0748 13.552 35.6508 13.552C36.4721 13.552 37.1281 13.7333 37.6188 14.096C38.1201 14.448 38.4934 14.912 38.7388 15.488L37.6668 16.032C37.5174 15.6053 37.2721 15.2747 36.9308 15.04C36.5894 14.8053 36.1628 14.688 35.6508 14.688C35.2668 14.688 34.9308 14.752 34.6428 14.88C34.3548 14.9973 34.1148 15.168 33.9228 15.392C33.7308 15.6053 33.5868 15.8667 33.4908 16.176C33.3948 16.4747 33.3468 16.8053 33.3468 17.168V18.576C33.3468 19.3013 33.5388 19.8987 33.9228 20.368C34.3174 20.8267 34.8934 21.056 35.6508 21.056C36.6854 21.056 37.4321 20.576 37.8908 19.616L38.8188 20.24C38.5521 20.8373 38.1521 21.312 37.6188 21.664C37.0961 22.016 36.4401 22.192 35.6508 22.192ZM41.2656 11.808C40.9883 11.808 40.7856 11.744 40.6576 11.616C40.5403 11.4773 40.4816 11.3013 40.4816 11.088V10.88C40.4816 10.6667 40.5403 10.496 40.6576 10.368C40.7856 10.2293 40.9883 10.16 41.2656 10.16C41.543 10.16 41.7403 10.2293 41.8576 10.368C41.9856 10.496 42.0496 10.6667 42.0496 10.88V11.088C42.0496 11.3013 41.9856 11.4773 41.8576 11.616C41.7403 11.744 41.543 11.808 41.2656 11.808ZM40.6256 13.744H41.9056V22H40.6256V13.744ZM47.7456 22.192C47.191 22.192 46.6843 22.0907 46.2256 21.888C45.767 21.6853 45.3723 21.3973 45.0416 21.024C44.7216 20.64 44.471 20.1867 44.2896 19.664C44.1083 19.1307 44.0176 18.5333 44.0176 17.872C44.0176 17.2213 44.1083 16.6293 44.2896 16.096C44.471 15.5627 44.7216 15.1093 45.0416 14.736C45.3723 14.352 45.767 14.0587 46.2256 13.856C46.6843 13.6533 47.191 13.552 47.7456 13.552C48.3003 13.552 48.8016 13.6533 49.2496 13.856C49.7083 14.0587 50.103 14.352 50.4336 14.736C50.7643 15.1093 51.0203 15.5627 51.2016 16.096C51.383 16.6293 51.4736 17.2213 51.4736 17.872C51.4736 18.5333 51.383 19.1307 51.2016 19.664C51.0203 20.1867 50.7643 20.64 50.4336 21.024C50.103 21.3973 49.7083 21.6853 49.2496 21.888C48.8016 22.0907 48.3003 22.192 47.7456 22.192ZM47.7456 21.056C48.439 21.056 49.0043 20.8427 49.4416 20.416C49.879 19.9893 50.0976 19.3387 50.0976 18.464V17.28C50.0976 16.4053 49.879 15.7547 49.4416 15.328C49.0043 14.9013 48.439 14.688 47.7456 14.688C47.0523 14.688 46.487 14.9013 46.0496 15.328C45.6123 15.7547 45.3936 16.4053 45.3936 17.28V18.464C45.3936 19.3387 45.6123 19.9893 46.0496 20.416C46.487 20.8427 47.0523 21.056 47.7456 21.056ZM53.5788 22V13.744H54.8588V15.088H54.9228C55.1254 14.6187 55.4081 14.2453 55.7708 13.968C56.1441 13.6907 56.6401 13.552 57.2588 13.552C58.1121 13.552 58.7841 13.8293 59.2748 14.384C59.7761 14.928 60.0268 15.7013 60.0268 16.704V22H58.7468V16.928C58.7468 15.4453 58.1228 14.704 56.8748 14.704C56.6188 14.704 56.3681 14.736 56.1228 14.8C55.8881 14.864 55.6748 14.96 55.4828 15.088C55.2908 15.216 55.1361 15.3813 55.0188 15.584C54.9121 15.776 54.8588 16.0053 54.8588 16.272V22H53.5788ZM65.7765 22.192C65.2112 22.192 64.6992 22.0907 64.2405 21.888C63.7925 21.6853 63.4032 21.3973 63.0725 21.024C62.7525 20.64 62.5018 20.1867 62.3205 19.664C62.1498 19.1307 62.0645 18.5333 62.0645 17.872C62.0645 17.2213 62.1498 16.6293 62.3205 16.096C62.5018 15.5627 62.7525 15.1093 63.0725 14.736C63.4032 14.352 63.7925 14.0587 64.2405 13.856C64.6992 13.6533 65.2112 13.552 65.7765 13.552C66.3312 13.552 66.8272 13.6533 67.2645 13.856C67.7018 14.0587 68.0752 14.3413 68.3845 14.704C68.6938 15.056 68.9285 15.4773 69.0885 15.968C69.2592 16.4587 69.3445 16.9973 69.3445 17.584V18.192H63.4085V18.576C63.4085 18.928 63.4618 19.2587 63.5685 19.568C63.6858 19.8667 63.8458 20.128 64.0485 20.352C64.2618 20.576 64.5178 20.752 64.8165 20.88C65.1258 21.008 65.4725 21.072 65.8565 21.072C66.3792 21.072 66.8325 20.9493 67.2165 20.704C67.6112 20.4587 67.9152 20.1067 68.1285 19.648L69.0405 20.304C68.7738 20.8693 68.3578 21.328 67.7925 21.68C67.2272 22.0213 66.5552 22.192 65.7765 22.192ZM65.7765 14.624C65.4245 14.624 65.1045 14.688 64.8165 14.816C64.5285 14.9333 64.2778 15.104 64.0645 15.328C63.8618 15.552 63.7018 15.8187 63.5845 16.128C63.4672 16.4267 63.4085 16.7573 63.4085 17.12V17.232H67.9685V17.056C67.9685 16.32 67.7658 15.7333 67.3605 15.296C66.9658 14.848 66.4378 14.624 65.7765 14.624ZM78.355 22.192C77.8003 22.192 77.2937 22.0907 76.835 21.888C76.3763 21.6853 75.9817 21.3973 75.651 21.024C75.331 20.64 75.0803 20.1867 74.899 19.664C74.7177 19.1307 74.627 18.5333 74.627 17.872C74.627 17.2213 74.7177 16.6293 74.899 16.096C75.0803 15.5627 75.331 15.1093 75.651 14.736C75.9817 14.352 76.3763 14.0587 76.835 13.856C77.2937 13.6533 77.8003 13.552 78.355 13.552C78.9097 13.552 79.411 13.6533 79.859 13.856C80.3177 14.0587 80.7123 14.352 81.043 14.736C81.3737 15.1093 81.6297 15.5627 81.811 16.096C81.9923 16.6293 82.083 17.2213 82.083 17.872C82.083 18.5333 81.9923 19.1307 81.811 19.664C81.6297 20.1867 81.3737 20.64 81.043 21.024C80.7123 21.3973 80.3177 21.6853 79.859 21.888C79.411 22.0907 78.9097 22.192 78.355 22.192ZM78.355 21.056C79.0483 21.056 79.6137 20.8427 80.051 20.416C80.4883 19.9893 80.707 19.3387 80.707 18.464V17.28C80.707 16.4053 80.4883 15.7547 80.051 15.328C79.6137 14.9013 79.0483 14.688 78.355 14.688C77.6617 14.688 77.0963 14.9013 76.659 15.328C76.2217 15.7547 76.003 16.4053 76.003 17.28V18.464C76.003 19.3387 76.2217 19.9893 76.659 20.416C77.0963 20.8427 77.6617 21.056 78.355 21.056ZM90.4494 22.192C89.6814 22.192 89.036 22.048 88.5134 21.76C88.0014 21.4613 87.5587 21.0667 87.1854 20.576L88.0974 19.84C88.4174 20.2453 88.7747 20.56 89.1694 20.784C89.564 20.9973 90.0227 21.104 90.5454 21.104C91.0894 21.104 91.5107 20.9867 91.8094 20.752C92.1187 20.5173 92.2734 20.1867 92.2734 19.76C92.2734 19.44 92.1667 19.168 91.9534 18.944C91.7507 18.7093 91.3774 18.5493 90.8334 18.464L90.1774 18.368C89.7934 18.3147 89.4414 18.2347 89.1214 18.128C88.8014 18.0107 88.5187 17.8613 88.2734 17.68C88.0387 17.488 87.852 17.2533 87.7134 16.976C87.5854 16.6987 87.5214 16.368 87.5214 15.984C87.5214 15.5787 87.596 15.2267 87.7454 14.928C87.8947 14.6187 88.0974 14.3627 88.3534 14.16C88.62 13.9573 88.9347 13.808 89.2974 13.712C89.66 13.6053 90.0494 13.552 90.4654 13.552C91.1374 13.552 91.6974 13.6693 92.1454 13.904C92.604 14.1387 93.004 14.464 93.3454 14.88L92.4974 15.648C92.316 15.392 92.0494 15.1627 91.6974 14.96C91.3454 14.7467 90.9027 14.64 90.3694 14.64C89.836 14.64 89.4307 14.7573 89.1534 14.992C88.8867 15.216 88.7534 15.5253 88.7534 15.92C88.7534 16.3253 88.8867 16.6187 89.1534 16.8C89.4307 16.9813 89.8254 17.1147 90.3374 17.2L90.9774 17.296C91.8947 17.4347 92.5454 17.7013 92.9294 18.096C93.3134 18.48 93.5054 18.9867 93.5054 19.616C93.5054 20.416 93.2334 21.0453 92.6894 21.504C92.1454 21.9627 91.3987 22.192 90.4494 22.192ZM98.8703 22.192C98.3049 22.192 97.7929 22.0907 97.3343 21.888C96.8863 21.6853 96.4969 21.3973 96.1663 21.024C95.8463 20.64 95.5956 20.1867 95.4143 19.664C95.2436 19.1307 95.1583 18.5333 95.1583 17.872C95.1583 17.2213 95.2436 16.6293 95.4143 16.096C95.5956 15.5627 95.8463 15.1093 96.1663 14.736C96.4969 14.352 96.8863 14.0587 97.3343 13.856C97.7929 13.6533 98.3049 13.552 98.8703 13.552C99.4249 13.552 99.9209 13.6533 100.358 13.856C100.796 14.0587 101.169 14.3413 101.478 14.704C101.788 15.056 102.022 15.4773 102.182 15.968C102.353 16.4587 102.438 16.9973 102.438 17.584V18.192H96.5023V18.576C96.5023 18.928 96.5556 19.2587 96.6623 19.568C96.7796 19.8667 96.9396 20.128 97.1423 20.352C97.3556 20.576 97.6116 20.752 97.9103 20.88C98.2196 21.008 98.5663 21.072 98.9503 21.072C99.4729 21.072 99.9263 20.9493 100.31 20.704C100.705 20.4587 101.009 20.1067 101.222 19.648L102.134 20.304C101.868 20.8693 101.452 21.328 100.886 21.68C100.321 22.0213 99.6489 22.192 98.8703 22.192ZM98.8703 14.624C98.5183 14.624 98.1983 14.688 97.9103 14.816C97.6223 14.9333 97.3716 15.104 97.1583 15.328C96.9556 15.552 96.7956 15.8187 96.6783 16.128C96.5609 16.4267 96.5023 16.7573 96.5023 17.12V17.232H101.062V17.056C101.062 16.32 100.86 15.7333 100.454 15.296C100.06 14.848 99.5316 14.624 98.8703 14.624ZM109.636 20.656H109.572C109.486 20.848 109.38 21.04 109.252 21.232C109.134 21.4133 108.985 21.5787 108.804 21.728C108.622 21.8667 108.404 21.9787 108.148 22.064C107.892 22.1493 107.593 22.192 107.252 22.192C106.398 22.192 105.721 21.92 105.22 21.376C104.718 20.8213 104.468 20.0427 104.468 19.04V13.744H105.748V18.816C105.748 20.2987 106.377 21.04 107.636 21.04C107.892 21.04 108.137 21.008 108.372 20.944C108.617 20.88 108.83 20.784 109.012 20.656C109.204 20.528 109.353 20.368 109.46 20.176C109.577 19.9733 109.636 19.7333 109.636 19.456V13.744H110.916V22H109.636V20.656ZM124.383 22.912C124.383 23.7653 124.047 24.3893 123.375 24.784C122.713 25.1893 121.716 25.392 120.383 25.392C119.092 25.392 118.164 25.216 117.599 24.864C117.033 24.512 116.751 24.0107 116.751 23.36C116.751 22.912 116.868 22.56 117.103 22.304C117.337 22.0587 117.657 21.8773 118.062 21.76V21.584C117.572 21.3493 117.327 20.9653 117.327 20.432C117.327 20.016 117.46 19.7013 117.727 19.488C117.993 19.264 118.335 19.0987 118.751 18.992V18.928C118.26 18.6933 117.876 18.3573 117.599 17.92C117.332 17.4827 117.199 16.976 117.199 16.4C117.199 15.984 117.273 15.6 117.423 15.248C117.572 14.896 117.78 14.5973 118.047 14.352C118.324 14.096 118.649 13.8987 119.023 13.76C119.407 13.6213 119.833 13.552 120.303 13.552C120.889 13.552 121.412 13.6587 121.871 13.872V13.728C121.871 13.408 121.945 13.1467 122.095 12.944C122.244 12.7307 122.489 12.624 122.831 12.624H124.062V13.744H122.495V14.272C122.793 14.528 123.023 14.8373 123.183 15.2C123.353 15.552 123.439 15.952 123.439 16.4C123.439 16.816 123.364 17.2 123.215 17.552C123.065 17.904 122.852 18.208 122.575 18.464C122.308 18.7093 121.983 18.9013 121.599 19.04C121.215 19.1787 120.788 19.248 120.319 19.248C120.052 19.248 119.785 19.2213 119.519 19.168C119.241 19.2427 118.991 19.3547 118.767 19.504C118.543 19.6427 118.431 19.84 118.431 20.096C118.431 20.3413 118.548 20.5067 118.783 20.592C119.017 20.6773 119.321 20.72 119.695 20.72H121.455C122.479 20.72 123.22 20.9173 123.679 21.312C124.148 21.696 124.383 22.2293 124.383 22.912ZM123.183 23.008C123.183 22.6773 123.055 22.4107 122.799 22.208C122.553 22.016 122.111 21.92 121.471 21.92H118.719C118.207 22.1547 117.951 22.528 117.951 23.04C117.951 23.4027 118.084 23.712 118.351 23.968C118.628 24.224 119.092 24.352 119.743 24.352H120.927C121.641 24.352 122.196 24.24 122.591 24.016C122.985 23.792 123.183 23.456 123.183 23.008ZM120.319 18.224C120.863 18.224 121.295 18.096 121.615 17.84C121.935 17.5733 122.095 17.168 122.095 16.624V16.176C122.095 15.632 121.935 15.232 121.615 14.976C121.295 14.7093 120.863 14.576 120.319 14.576C119.775 14.576 119.343 14.7093 119.023 14.976C118.703 15.232 118.543 15.632 118.543 16.176V16.624C118.543 17.168 118.703 17.5733 119.023 17.84C119.343 18.096 119.775 18.224 120.319 18.224ZM128.886 22.192C128.321 22.192 127.809 22.0907 127.35 21.888C126.902 21.6853 126.513 21.3973 126.182 21.024C125.862 20.64 125.611 20.1867 125.43 19.664C125.259 19.1307 125.174 18.5333 125.174 17.872C125.174 17.2213 125.259 16.6293 125.43 16.096C125.611 15.5627 125.862 15.1093 126.182 14.736C126.513 14.352 126.902 14.0587 127.35 13.856C127.809 13.6533 128.321 13.552 128.886 13.552C129.441 13.552 129.937 13.6533 130.374 13.856C130.811 14.0587 131.185 14.3413 131.494 14.704C131.803 15.056 132.038 15.4773 132.198 15.968C132.369 16.4587 132.454 16.9973 132.454 17.584V18.192H126.518V18.576C126.518 18.928 126.571 19.2587 126.678 19.568C126.795 19.8667 126.955 20.128 127.158 20.352C127.371 20.576 127.627 20.752 127.926 20.88C128.235 21.008 128.582 21.072 128.966 21.072C129.489 21.072 129.942 20.9493 130.326 20.704C130.721 20.4587 131.025 20.1067 131.238 19.648L132.15 20.304C131.883 20.8693 131.467 21.328 130.902 21.68C130.337 22.0213 129.665 22.192 128.886 22.192ZM128.886 14.624C128.534 14.624 128.214 14.688 127.926 14.816C127.638 14.9333 127.387 15.104 127.174 15.328C126.971 15.552 126.811 15.8187 126.694 16.128C126.577 16.4267 126.518 16.7573 126.518 17.12V17.232H131.078V17.056C131.078 16.32 130.875 15.7333 130.47 15.296C130.075 14.848 129.547 14.624 128.886 14.624ZM129.702 9.76L131.478 12.048L130.774 12.544L128.902 10.672L127.03 12.544L126.326 12.048L128.102 9.76H129.702ZM134.563 22V13.744H135.843V15.088H135.907C136.11 14.6187 136.392 14.2453 136.755 13.968C137.128 13.6907 137.624 13.552 138.243 13.552C139.096 13.552 139.768 13.8293 140.259 14.384C140.76 14.928 141.011 15.7013 141.011 16.704V22H139.731V16.928C139.731 15.4453 139.107 14.704 137.859 14.704C137.603 14.704 137.352 14.736 137.107 14.8C136.872 14.864 136.659 14.96 136.467 15.088C136.275 15.216 136.12 15.3813 136.003 15.584C135.896 15.776 135.843 16.0053 135.843 16.272V22H134.563ZM146.761 22.192C146.196 22.192 145.684 22.0907 145.225 21.888C144.777 21.6853 144.388 21.3973 144.057 21.024C143.737 20.64 143.486 20.1867 143.305 19.664C143.134 19.1307 143.049 18.5333 143.049 17.872C143.049 17.2213 143.134 16.6293 143.305 16.096C143.486 15.5627 143.737 15.1093 144.057 14.736C144.388 14.352 144.777 14.0587 145.225 13.856C145.684 13.6533 146.196 13.552 146.761 13.552C147.316 13.552 147.812 13.6533 148.249 13.856C148.686 14.0587 149.06 14.3413 149.369 14.704C149.678 15.056 149.913 15.4773 150.073 15.968C150.244 16.4587 150.329 16.9973 150.329 17.584V18.192H144.393V18.576C144.393 18.928 144.446 19.2587 144.553 19.568C144.67 19.8667 144.83 20.128 145.033 20.352C145.246 20.576 145.502 20.752 145.801 20.88C146.11 21.008 146.457 21.072 146.841 21.072C147.364 21.072 147.817 20.9493 148.201 20.704C148.596 20.4587 148.9 20.1067 149.113 19.648L150.025 20.304C149.758 20.8693 149.342 21.328 148.777 21.68C148.212 22.0213 147.54 22.192 146.761 22.192ZM146.761 14.624C146.409 14.624 146.089 14.688 145.801 14.816C145.513 14.9333 145.262 15.104 145.049 15.328C144.846 15.552 144.686 15.8187 144.569 16.128C144.452 16.4267 144.393 16.7573 144.393 17.12V17.232H148.953V17.056C148.953 16.32 148.75 15.7333 148.345 15.296C147.95 14.848 147.422 14.624 146.761 14.624ZM152.438 22V13.744H153.718V15.264H153.798C153.947 14.8693 154.214 14.5173 154.598 14.208C154.982 13.8987 155.51 13.744 156.182 13.744H156.678V15.024H155.926C155.233 15.024 154.689 15.1573 154.294 15.424C153.91 15.68 153.718 16.0053 153.718 16.4V22H152.438ZM161.355 22.192C160.8 22.192 160.294 22.0907 159.835 21.888C159.376 21.6853 158.982 21.3973 158.651 21.024C158.331 20.64 158.08 20.1867 157.899 19.664C157.718 19.1307 157.627 18.5333 157.627 17.872C157.627 17.2213 157.718 16.6293 157.899 16.096C158.08 15.5627 158.331 15.1093 158.651 14.736C158.982 14.352 159.376 14.0587 159.835 13.856C160.294 13.6533 160.8 13.552 161.355 13.552C161.91 13.552 162.411 13.6533 162.859 13.856C163.318 14.0587 163.712 14.352 164.043 14.736C164.374 15.1093 164.63 15.5627 164.811 16.096C164.992 16.6293 165.083 17.2213 165.083 17.872C165.083 18.5333 164.992 19.1307 164.811 19.664C164.63 20.1867 164.374 20.64 164.043 21.024C163.712 21.3973 163.318 21.6853 162.859 21.888C162.411 22.0907 161.91 22.192 161.355 22.192ZM161.355 21.056C162.048 21.056 162.614 20.8427 163.051 20.416C163.488 19.9893 163.707 19.3387 163.707 18.464V17.28C163.707 16.4053 163.488 15.7547 163.051 15.328C162.614 14.9013 162.048 14.688 161.355 14.688C160.662 14.688 160.096 14.9013 159.659 15.328C159.222 15.7547 159.003 16.4053 159.003 17.28V18.464C159.003 19.3387 159.222 19.9893 159.659 20.416C160.096 20.8427 160.662 21.056 161.355 21.056Z" fill="white"/>
<path d="M168.116 15.792L167.22 15.136L168.676 13.28L166.404 12.656L166.756 11.584L168.964 12.4L168.868 10.048H169.988L169.892 12.4L172.1 11.584L172.452 12.656L170.18 13.28L171.636 15.136L170.74 15.792L169.428 13.824L168.116 15.792Z" fill="#7EDDD3"/>
<circle cx="8.14286" cy="58.9998" r="7.46429" stroke="#7EDDD3" stroke-width="1.35714"/>
<path d="M37.3351 55.592H37.2551L36.3111 57.464L33.6391 62.328L30.9671 57.464L30.0231 55.592H29.9431V65H28.6311V53.832H30.4231L33.6231 59.848H33.7031L36.9191 53.832H38.6471V65H37.3351V55.592ZM47.4874 65C47.0074 65 46.6608 64.872 46.4474 64.616C46.2448 64.36 46.1168 64.04 46.0634 63.656H45.9834C45.8021 64.168 45.5034 64.552 45.0874 64.808C44.6714 65.064 44.1754 65.192 43.5994 65.192C42.7248 65.192 42.0421 64.968 41.5514 64.52C41.0714 64.072 40.8314 63.464 40.8314 62.696C40.8314 61.9173 41.1141 61.32 41.6794 60.904C42.2554 60.488 43.1461 60.28 44.3514 60.28H45.9834V59.464C45.9834 58.8773 45.8234 58.4293 45.5034 58.12C45.1834 57.8107 44.6928 57.656 44.0314 57.656C43.5301 57.656 43.1088 57.768 42.7674 57.992C42.4368 58.216 42.1594 58.5147 41.9354 58.888L41.1674 58.168C41.3914 57.72 41.7488 57.3413 42.2394 57.032C42.7301 56.712 43.3488 56.552 44.0954 56.552C45.0981 56.552 45.8768 56.7973 46.4314 57.288C46.9861 57.7787 47.2634 58.4613 47.2634 59.336V63.88H48.2074V65H47.4874ZM43.8074 64.104C44.1274 64.104 44.4208 64.0667 44.6874 63.992C44.9541 63.9173 45.1834 63.8107 45.3754 63.672C45.5674 63.5333 45.7168 63.3733 45.8234 63.192C45.9301 63.0107 45.9834 62.8133 45.9834 62.6V61.24H44.2874C43.5514 61.24 43.0128 61.3467 42.6714 61.56C42.3408 61.7733 42.1754 62.0827 42.1754 62.488V62.824C42.1754 63.2293 42.3194 63.544 42.6074 63.768C42.9061 63.992 43.3061 64.104 43.8074 64.104ZM52.5143 65.192C51.7463 65.192 51.101 65.048 50.5783 64.76C50.0663 64.4613 49.6236 64.0667 49.2503 63.576L50.1623 62.84C50.4823 63.2453 50.8396 63.56 51.2343 63.784C51.629 63.9973 52.0876 64.104 52.6103 64.104C53.1543 64.104 53.5757 63.9867 53.8743 63.752C54.1836 63.5173 54.3383 63.1867 54.3383 62.76C54.3383 62.44 54.2316 62.168 54.0183 61.944C53.8157 61.7093 53.4423 61.5493 52.8983 61.464L52.2423 61.368C51.8583 61.3147 51.5063 61.2347 51.1863 61.128C50.8663 61.0107 50.5836 60.8613 50.3383 60.68C50.1036 60.488 49.917 60.2533 49.7783 59.976C49.6503 59.6987 49.5863 59.368 49.5863 58.984C49.5863 58.5787 49.661 58.2267 49.8103 57.928C49.9596 57.6187 50.1623 57.3627 50.4183 57.16C50.685 56.9573 50.9996 56.808 51.3623 56.712C51.725 56.6053 52.1143 56.552 52.5303 56.552C53.2023 56.552 53.7623 56.6693 54.2103 56.904C54.669 57.1387 55.069 57.464 55.4103 57.88L54.5623 58.648C54.381 58.392 54.1143 58.1627 53.7623 57.96C53.4103 57.7467 52.9677 57.64 52.4343 57.64C51.901 57.64 51.4956 57.7573 51.2183 57.992C50.9516 58.216 50.8183 58.5253 50.8183 58.92C50.8183 59.3253 50.9516 59.6187 51.2183 59.8C51.4956 59.9813 51.8903 60.1147 52.4023 60.2L53.0423 60.296C53.9597 60.4347 54.6103 60.7013 54.9943 61.096C55.3783 61.48 55.5703 61.9867 55.5703 62.616C55.5703 63.416 55.2983 64.0453 54.7543 64.504C54.2103 64.9627 53.4637 65.192 52.5143 65.192ZM60.9032 65.192C60.3272 65.192 59.8099 65.0907 59.3512 64.888C58.8925 64.6853 58.5032 64.3973 58.1832 64.024C57.8739 63.6507 57.6339 63.1973 57.4632 62.664C57.3032 62.1307 57.2232 61.5333 57.2232 60.872C57.2232 60.2107 57.3032 59.6133 57.4632 59.08C57.6339 58.5467 57.8739 58.0933 58.1832 57.72C58.5032 57.3467 58.8925 57.0587 59.3512 56.856C59.8099 56.6533 60.3272 56.552 60.9032 56.552C61.7245 56.552 62.3805 56.7333 62.8712 57.096C63.3725 57.448 63.7459 57.912 63.9912 58.488L62.9192 59.032C62.7699 58.6053 62.5245 58.2747 62.1832 58.04C61.8419 57.8053 61.4152 57.688 60.9032 57.688C60.5192 57.688 60.1832 57.752 59.8952 57.88C59.6072 57.9973 59.3672 58.168 59.1752 58.392C58.9832 58.6053 58.8392 58.8667 58.7432 59.176C58.6472 59.4747 58.5992 59.8053 58.5992 60.168V61.576C58.5992 62.3013 58.7912 62.8987 59.1752 63.368C59.5699 63.8267 60.1459 64.056 60.9032 64.056C61.9379 64.056 62.6845 63.576 63.1432 62.616L64.0712 63.24C63.8045 63.8373 63.4045 64.312 62.8712 64.664C62.3485 65.016 61.6925 65.192 60.9032 65.192ZM70.9661 63.656H70.9021C70.8167 63.848 70.7101 64.04 70.5821 64.232C70.4647 64.4133 70.3154 64.5787 70.1341 64.728C69.9527 64.8667 69.7341 64.9787 69.4781 65.064C69.2221 65.1493 68.9234 65.192 68.5821 65.192C67.7287 65.192 67.0514 64.92 66.5501 64.376C66.0487 63.8213 65.7981 63.0427 65.7981 62.04V56.744H67.0781V61.816C67.0781 63.2987 67.7074 64.04 68.9661 64.04C69.2221 64.04 69.4674 64.008 69.7021 63.944C69.9474 63.88 70.1607 63.784 70.3421 63.656C70.5341 63.528 70.6834 63.368 70.7901 63.176C70.9074 62.9733 70.9661 62.7333 70.9661 62.456V56.744H72.2461V65H70.9661V63.656ZM76.3318 65C75.8838 65 75.5425 64.8773 75.3078 64.632C75.0838 64.376 74.9718 64.056 74.9718 63.672V53.16H76.2518V63.88H77.4678V65H76.3318ZM79.9712 54.808C79.6939 54.808 79.4912 54.744 79.3632 54.616C79.2459 54.4773 79.1872 54.3013 79.1872 54.088V53.88C79.1872 53.6667 79.2459 53.496 79.3632 53.368C79.4912 53.2293 79.6939 53.16 79.9712 53.16C80.2485 53.16 80.4459 53.2293 80.5632 53.368C80.6912 53.496 80.7552 53.6667 80.7552 53.88V54.088C80.7552 54.3013 80.6912 54.4773 80.5632 54.616C80.4459 54.744 80.2485 54.808 79.9712 54.808ZM79.3312 56.744H80.6112V65H79.3312V56.744ZM83.3312 65V56.744H84.6112V58.088H84.6752C84.8779 57.6187 85.1605 57.2453 85.5232 56.968C85.8965 56.6907 86.3925 56.552 87.0112 56.552C87.8645 56.552 88.5365 56.8293 89.0272 57.384C89.5285 57.928 89.7792 58.7013 89.7792 59.704V65H88.4992V59.928C88.4992 58.4453 87.8752 57.704 86.6272 57.704C86.3712 57.704 86.1205 57.736 85.8752 57.8C85.6405 57.864 85.4272 57.96 85.2352 58.088C85.0432 58.216 84.8885 58.3813 84.7712 58.584C84.6645 58.776 84.6112 59.0053 84.6112 59.272V65H83.3312ZM95.5449 65.192C94.9903 65.192 94.4836 65.0907 94.0249 64.888C93.5663 64.6853 93.1716 64.3973 92.8409 64.024C92.5209 63.64 92.2703 63.1867 92.0889 62.664C91.9076 62.1307 91.8169 61.5333 91.8169 60.872C91.8169 60.2213 91.9076 59.6293 92.0889 59.096C92.2703 58.5627 92.5209 58.1093 92.8409 57.736C93.1716 57.352 93.5663 57.0587 94.0249 56.856C94.4836 56.6533 94.9903 56.552 95.5449 56.552C96.0996 56.552 96.6009 56.6533 97.0489 56.856C97.5076 57.0587 97.9023 57.352 98.2329 57.736C98.5636 58.1093 98.8196 58.5627 99.0009 59.096C99.1823 59.6293 99.2729 60.2213 99.2729 60.872C99.2729 61.5333 99.1823 62.1307 99.0009 62.664C98.8196 63.1867 98.5636 63.64 98.2329 64.024C97.9023 64.3973 97.5076 64.6853 97.0489 64.888C96.6009 65.0907 96.0996 65.192 95.5449 65.192ZM95.5449 64.056C96.2383 64.056 96.8036 63.8427 97.2409 63.416C97.6783 62.9893 97.8969 62.3387 97.8969 61.464V60.28C97.8969 59.4053 97.6783 58.7547 97.2409 58.328C96.8036 57.9013 96.2383 57.688 95.5449 57.688C94.8516 57.688 94.2863 57.9013 93.8489 58.328C93.4116 58.7547 93.1929 59.4053 93.1929 60.28V61.464C93.1929 62.3387 93.4116 62.9893 93.8489 63.416C94.2863 63.8427 94.8516 64.056 95.5449 64.056Z" fill="#F2F2FA"/>
<circle cx="144.286" cy="58.9998" r="7.46429" stroke="#7EDDD3" stroke-width="1.35714"/>
<path d="M164.774 65V53.832H171.43V55.016H166.118V58.76H170.966V59.944H166.118V65H164.774ZM176.281 65.192C175.716 65.192 175.204 65.0907 174.745 64.888C174.297 64.6853 173.908 64.3973 173.577 64.024C173.257 63.64 173.007 63.1867 172.825 62.664C172.655 62.1307 172.569 61.5333 172.569 60.872C172.569 60.2213 172.655 59.6293 172.825 59.096C173.007 58.5627 173.257 58.1093 173.577 57.736C173.908 57.352 174.297 57.0587 174.745 56.856C175.204 56.6533 175.716 56.552 176.281 56.552C176.836 56.552 177.332 56.6533 177.769 56.856C178.207 57.0587 178.58 57.3413 178.889 57.704C179.199 58.056 179.433 58.4773 179.593 58.968C179.764 59.4587 179.849 59.9973 179.849 60.584V61.192H173.913V61.576C173.913 61.928 173.967 62.2587 174.073 62.568C174.191 62.8667 174.351 63.128 174.553 63.352C174.767 63.576 175.023 63.752 175.321 63.88C175.631 64.008 175.977 64.072 176.361 64.072C176.884 64.072 177.337 63.9493 177.721 63.704C178.116 63.4587 178.42 63.1067 178.633 62.648L179.545 63.304C179.279 63.8693 178.863 64.328 178.297 64.68C177.732 65.0213 177.06 65.192 176.281 65.192ZM176.281 57.624C175.929 57.624 175.609 57.688 175.321 57.816C175.033 57.9333 174.783 58.104 174.569 58.328C174.367 58.552 174.207 58.8187 174.089 59.128C173.972 59.4267 173.913 59.7573 173.913 60.12V60.232H178.473V60.056C178.473 59.32 178.271 58.7333 177.865 58.296C177.471 57.848 176.943 57.624 176.281 57.624ZM181.959 65V56.744H183.239V58.088H183.303C183.399 57.8747 183.505 57.6773 183.623 57.496C183.751 57.304 183.9 57.1387 184.071 57C184.252 56.8613 184.46 56.7547 184.695 56.68C184.929 56.5947 185.207 56.552 185.527 56.552C186.071 56.552 186.572 56.6853 187.031 56.952C187.489 57.208 187.831 57.6347 188.055 58.232H188.087C188.236 57.784 188.513 57.3947 188.919 57.064C189.335 56.7227 189.895 56.552 190.599 56.552C191.441 56.552 192.097 56.8293 192.567 57.384C193.047 57.928 193.287 58.7013 193.287 59.704V65H192.007V59.928C192.007 59.192 191.863 58.6373 191.575 58.264C191.287 57.8907 190.828 57.704 190.199 57.704C189.943 57.704 189.697 57.736 189.463 57.8C189.239 57.864 189.036 57.96 188.855 58.088C188.673 58.216 188.529 58.3813 188.423 58.584C188.316 58.776 188.263 59.0053 188.263 59.272V65H186.983V59.928C186.983 59.192 186.839 58.6373 186.551 58.264C186.263 57.8907 185.815 57.704 185.207 57.704C184.951 57.704 184.705 57.736 184.471 57.8C184.236 57.864 184.028 57.96 183.847 58.088C183.665 58.216 183.516 58.3813 183.399 58.584C183.292 58.776 183.239 59.0053 183.239 59.272V65H181.959ZM196.567 54.808C196.29 54.808 196.087 54.744 195.959 54.616C195.842 54.4773 195.783 54.3013 195.783 54.088V53.88C195.783 53.6667 195.842 53.496 195.959 53.368C196.087 53.2293 196.29 53.16 196.567 53.16C196.845 53.16 197.042 53.2293 197.159 53.368C197.287 53.496 197.351 53.6667 197.351 53.88V54.088C197.351 54.3013 197.287 54.4773 197.159 54.616C197.042 54.744 196.845 54.808 196.567 54.808ZM195.927 56.744H197.207V65H195.927V56.744ZM199.927 65V56.744H201.207V58.088H201.271C201.474 57.6187 201.757 57.2453 202.119 56.968C202.493 56.6907 202.989 56.552 203.607 56.552C204.461 56.552 205.133 56.8293 205.623 57.384C206.125 57.928 206.375 58.7013 206.375 59.704V65H205.095V59.928C205.095 58.4453 204.471 57.704 203.223 57.704C202.967 57.704 202.717 57.736 202.471 57.8C202.237 57.864 202.023 57.96 201.831 58.088C201.639 58.216 201.485 58.3813 201.367 58.584C201.261 58.776 201.207 59.0053 201.207 59.272V65H199.927ZM209.661 54.808C209.384 54.808 209.181 54.744 209.053 54.616C208.936 54.4773 208.877 54.3013 208.877 54.088V53.88C208.877 53.6667 208.936 53.496 209.053 53.368C209.181 53.2293 209.384 53.16 209.661 53.16C209.938 53.16 210.136 53.2293 210.253 53.368C210.381 53.496 210.445 53.6667 210.445 53.88V54.088C210.445 54.3013 210.381 54.4773 210.253 54.616C210.136 54.744 209.938 54.808 209.661 54.808ZM209.021 56.744H210.301V65H209.021V56.744ZM213.021 65V56.744H214.301V58.088H214.365C214.568 57.6187 214.85 57.2453 215.213 56.968C215.586 56.6907 216.082 56.552 216.701 56.552C217.554 56.552 218.226 56.8293 218.717 57.384C219.218 57.928 219.469 58.7013 219.469 59.704V65H218.189V59.928C218.189 58.4453 217.565 57.704 216.317 57.704C216.061 57.704 215.81 57.736 215.565 57.8C215.33 57.864 215.117 57.96 214.925 58.088C214.733 58.216 214.578 58.3813 214.461 58.584C214.354 58.776 214.301 59.0053 214.301 59.272V65H213.021ZM225.235 65.192C224.68 65.192 224.174 65.0907 223.715 64.888C223.256 64.6853 222.862 64.3973 222.531 64.024C222.211 63.64 221.96 63.1867 221.779 62.664C221.598 62.1307 221.507 61.5333 221.507 60.872C221.507 60.2213 221.598 59.6293 221.779 59.096C221.96 58.5627 222.211 58.1093 222.531 57.736C222.862 57.352 223.256 57.0587 223.715 56.856C224.174 56.6533 224.68 56.552 225.235 56.552C225.79 56.552 226.291 56.6533 226.739 56.856C227.198 57.0587 227.592 57.352 227.923 57.736C228.254 58.1093 228.51 58.5627 228.691 59.096C228.872 59.6293 228.963 60.2213 228.963 60.872C228.963 61.5333 228.872 62.1307 228.691 62.664C228.51 63.1867 228.254 63.64 227.923 64.024C227.592 64.3973 227.198 64.6853 226.739 64.888C226.291 65.0907 225.79 65.192 225.235 65.192ZM225.235 64.056C225.928 64.056 226.494 63.8427 226.931 63.416C227.368 62.9893 227.587 62.3387 227.587 61.464V60.28C227.587 59.4053 227.368 58.7547 226.931 58.328C226.494 57.9013 225.928 57.688 225.235 57.688C224.542 57.688 223.976 57.9013 223.539 58.328C223.102 58.7547 222.883 59.4053 222.883 60.28V61.464C222.883 62.3387 223.102 62.9893 223.539 63.416C223.976 63.8427 224.542 64.056 225.235 64.056Z" fill="#F2F2FA"/>
<circle cx="270.428" cy="58.9998" r="7.46429" stroke="#7EDDD3" stroke-width="1.35714"/>
<path d="M290.917 65V53.832H295.365C296.367 53.832 297.135 54.12 297.669 54.696C298.213 55.2613 298.485 56.04 298.485 57.032C298.485 58.024 298.213 58.808 297.669 59.384C297.135 59.9493 296.367 60.232 295.365 60.232H292.261V65H290.917ZM292.261 59.048H295.365C295.898 59.048 296.309 58.9093 296.597 58.632C296.895 58.3547 297.045 57.96 297.045 57.448V56.616C297.045 56.104 296.895 55.7093 296.597 55.432C296.309 55.1547 295.898 55.016 295.365 55.016H292.261V59.048ZM300.336 65V56.744H301.616V58.264H301.696C301.845 57.8693 302.112 57.5173 302.496 57.208C302.88 56.8987 303.408 56.744 304.08 56.744H304.576V58.024H303.824C303.13 58.024 302.586 58.1573 302.192 58.424C301.808 58.68 301.616 59.0053 301.616 59.4V65H300.336ZM309.236 65.192C308.671 65.192 308.159 65.0907 307.7 64.888C307.252 64.6853 306.863 64.3973 306.532 64.024C306.212 63.64 305.962 63.1867 305.78 62.664C305.61 62.1307 305.524 61.5333 305.524 60.872C305.524 60.2213 305.61 59.6293 305.78 59.096C305.962 58.5627 306.212 58.1093 306.532 57.736C306.863 57.352 307.252 57.0587 307.7 56.856C308.159 56.6533 308.671 56.552 309.236 56.552C309.791 56.552 310.287 56.6533 310.724 56.856C311.162 57.0587 311.535 57.3413 311.844 57.704C312.154 58.056 312.388 58.4773 312.548 58.968C312.719 59.4587 312.804 59.9973 312.804 60.584V61.192H306.868V61.576C306.868 61.928 306.922 62.2587 307.028 62.568C307.146 62.8667 307.306 63.128 307.508 63.352C307.722 63.576 307.978 63.752 308.276 63.88C308.586 64.008 308.932 64.072 309.316 64.072C309.839 64.072 310.292 63.9493 310.676 63.704C311.071 63.4587 311.375 63.1067 311.588 62.648L312.5 63.304C312.234 63.8693 311.818 64.328 311.252 64.68C310.687 65.0213 310.015 65.192 309.236 65.192ZM309.236 57.624C308.884 57.624 308.564 57.688 308.276 57.816C307.988 57.9333 307.738 58.104 307.524 58.328C307.322 58.552 307.162 58.8187 307.044 59.128C306.927 59.4267 306.868 59.7573 306.868 60.12V60.232H311.428V60.056C311.428 59.32 311.226 58.7333 310.82 58.296C310.426 57.848 309.898 57.624 309.236 57.624ZM315.362 57.864H314.018V56.744H315.362V55.08C315.362 54.504 315.511 54.04 315.81 53.688C316.108 53.336 316.562 53.16 317.17 53.16H318.418V54.28H316.642V56.744H321.266V65H319.986V57.864H316.642V65H315.362V57.864ZM320.626 54.808C320.348 54.808 320.146 54.744 320.018 54.616C319.9 54.4773 319.842 54.3013 319.842 54.088V53.88C319.842 53.6667 319.9 53.496 320.018 53.368C320.146 53.2293 320.348 53.16 320.626 53.16C320.903 53.16 321.1 53.2293 321.218 53.368C321.346 53.496 321.41 53.6667 321.41 53.88V54.088C321.41 54.3013 321.346 54.4773 321.218 54.616C321.1 54.744 320.903 54.808 320.626 54.808ZM323.992 65V56.744H325.272V58.264H325.352C325.501 57.8693 325.768 57.5173 326.152 57.208C326.536 56.8987 327.064 56.744 327.736 56.744H328.232V58.024H327.48C326.787 58.024 326.243 58.1573 325.848 58.424C325.464 58.68 325.272 59.0053 325.272 59.4V65H323.992ZM332.909 65.192C332.354 65.192 331.847 65.0907 331.389 64.888C330.93 64.6853 330.535 64.3973 330.205 64.024C329.885 63.64 329.634 63.1867 329.453 62.664C329.271 62.1307 329.181 61.5333 329.181 60.872C329.181 60.2213 329.271 59.6293 329.453 59.096C329.634 58.5627 329.885 58.1093 330.205 57.736C330.535 57.352 330.93 57.0587 331.389 56.856C331.847 56.6533 332.354 56.552 332.909 56.552C333.463 56.552 333.965 56.6533 334.413 56.856C334.871 57.0587 335.266 57.352 335.597 57.736C335.927 58.1093 336.183 58.5627 336.365 59.096C336.546 59.6293 336.637 60.2213 336.637 60.872C336.637 61.5333 336.546 62.1307 336.365 62.664C336.183 63.1867 335.927 63.64 335.597 64.024C335.266 64.3973 334.871 64.6853 334.413 64.888C333.965 65.0907 333.463 65.192 332.909 65.192ZM332.909 64.056C333.602 64.056 334.167 63.8427 334.605 63.416C335.042 62.9893 335.261 62.3387 335.261 61.464V60.28C335.261 59.4053 335.042 58.7547 334.605 58.328C334.167 57.9013 333.602 57.688 332.909 57.688C332.215 57.688 331.65 57.9013 331.213 58.328C330.775 58.7547 330.557 59.4053 330.557 60.28V61.464C330.557 62.3387 330.775 62.9893 331.213 63.416C331.65 63.8427 332.215 64.056 332.909 64.056ZM342.523 65V56.744H343.803V58.088H343.867C344.07 57.6187 344.352 57.2453 344.715 56.968C345.088 56.6907 345.584 56.552 346.203 56.552C347.056 56.552 347.728 56.8293 348.219 57.384C348.72 57.928 348.971 58.7013 348.971 59.704V65H347.691V59.928C347.691 58.4453 347.067 57.704 345.819 57.704C345.563 57.704 345.312 57.736 345.067 57.8C344.832 57.864 344.619 57.96 344.427 58.088C344.235 58.216 344.08 58.3813 343.963 58.584C343.856 58.776 343.803 59.0053 343.803 59.272V65H342.523ZM357.617 65C357.137 65 356.79 64.872 356.577 64.616C356.374 64.36 356.246 64.04 356.193 63.656H356.113C355.932 64.168 355.633 64.552 355.217 64.808C354.801 65.064 354.305 65.192 353.729 65.192C352.854 65.192 352.172 64.968 351.681 64.52C351.201 64.072 350.961 63.464 350.961 62.696C350.961 61.9173 351.244 61.32 351.809 60.904C352.385 60.488 353.276 60.28 354.481 60.28H356.113V59.464C356.113 58.8773 355.953 58.4293 355.633 58.12C355.313 57.8107 354.822 57.656 354.161 57.656C353.66 57.656 353.238 57.768 352.897 57.992C352.566 58.216 352.289 58.5147 352.065 58.888L351.297 58.168C351.521 57.72 351.878 57.3413 352.369 57.032C352.86 56.712 353.478 56.552 354.225 56.552C355.228 56.552 356.006 56.7973 356.561 57.288C357.116 57.7787 357.393 58.4613 357.393 59.336V63.88H358.337V65H357.617ZM353.937 64.104C354.257 64.104 354.55 64.0667 354.817 63.992C355.084 63.9173 355.313 63.8107 355.505 63.672C355.697 63.5333 355.846 63.3733 355.953 63.192C356.06 63.0107 356.113 62.8133 356.113 62.6V61.24H354.417C353.681 61.24 353.142 61.3467 352.801 61.56C352.47 61.7733 352.305 62.0827 352.305 62.488V62.824C352.305 63.2293 352.449 63.544 352.737 63.768C353.036 63.992 353.436 64.104 353.937 64.104ZM355.473 55.208C355.196 55.208 354.956 55.16 354.753 55.064C354.55 54.968 354.364 54.8773 354.193 54.792C353.937 54.6533 353.718 54.5573 353.537 54.504C353.366 54.44 353.212 54.408 353.073 54.408C352.892 54.408 352.732 54.4453 352.593 54.52C352.454 54.5947 352.305 54.7013 352.145 54.84L351.617 54.2C351.766 53.9867 351.964 53.7947 352.209 53.624C352.454 53.4427 352.764 53.352 353.137 53.352C353.414 53.352 353.654 53.4 353.857 53.496C354.06 53.592 354.246 53.6827 354.417 53.768C354.673 53.9067 354.886 54.008 355.057 54.072C355.238 54.1253 355.398 54.152 355.537 54.152C355.718 54.152 355.878 54.1147 356.017 54.04C356.156 53.9653 356.305 53.8587 356.465 53.72L356.993 54.36C356.844 54.5733 356.646 54.7707 356.401 54.952C356.156 55.1227 355.846 55.208 355.473 55.208ZM363.284 65.192C362.729 65.192 362.222 65.0907 361.764 64.888C361.305 64.6853 360.91 64.3973 360.58 64.024C360.26 63.64 360.009 63.1867 359.828 62.664C359.646 62.1307 359.556 61.5333 359.556 60.872C359.556 60.2213 359.646 59.6293 359.828 59.096C360.009 58.5627 360.26 58.1093 360.58 57.736C360.91 57.352 361.305 57.0587 361.764 56.856C362.222 56.6533 362.729 56.552 363.284 56.552C363.838 56.552 364.34 56.6533 364.788 56.856C365.246 57.0587 365.641 57.352 365.972 57.736C366.302 58.1093 366.558 58.5627 366.74 59.096C366.921 59.6293 367.012 60.2213 367.012 60.872C367.012 61.5333 366.921 62.1307 366.74 62.664C366.558 63.1867 366.302 63.64 365.972 64.024C365.641 64.3973 365.246 64.6853 364.788 64.888C364.34 65.0907 363.838 65.192 363.284 65.192ZM363.284 64.056C363.977 64.056 364.542 63.8427 364.98 63.416C365.417 62.9893 365.636 62.3387 365.636 61.464V60.28C365.636 59.4053 365.417 58.7547 364.98 58.328C364.542 57.9013 363.977 57.688 363.284 57.688C362.59 57.688 362.025 57.9013 361.588 58.328C361.15 58.7547 360.932 59.4053 360.932 60.28V61.464C360.932 62.3387 361.15 62.9893 361.588 63.416C362.025 63.8427 362.59 64.056 363.284 64.056ZM372.898 65V56.744H374.178V58.264H374.258C374.407 57.8693 374.674 57.5173 375.058 57.208C375.442 56.8987 375.97 56.744 376.642 56.744H377.138V58.024H376.386C375.693 58.024 375.149 58.1573 374.754 58.424C374.37 58.68 374.178 59.0053 374.178 59.4V65H372.898ZM381.799 65.192C381.234 65.192 380.722 65.0907 380.263 64.888C379.815 64.6853 379.426 64.3973 379.095 64.024C378.775 63.64 378.524 63.1867 378.343 62.664C378.172 62.1307 378.087 61.5333 378.087 60.872C378.087 60.2213 378.172 59.6293 378.343 59.096C378.524 58.5627 378.775 58.1093 379.095 57.736C379.426 57.352 379.815 57.0587 380.263 56.856C380.722 56.6533 381.234 56.552 381.799 56.552C382.354 56.552 382.85 56.6533 383.287 56.856C383.724 57.0587 384.098 57.3413 384.407 57.704C384.716 58.056 384.951 58.4773 385.111 58.968C385.282 59.4587 385.367 59.9973 385.367 60.584V61.192H379.431V61.576C379.431 61.928 379.484 62.2587 379.591 62.568C379.708 62.8667 379.868 63.128 380.071 63.352C380.284 63.576 380.54 63.752 380.839 63.88C381.148 64.008 381.495 64.072 381.879 64.072C382.402 64.072 382.855 63.9493 383.239 63.704C383.634 63.4587 383.938 63.1067 384.151 62.648L385.063 63.304C384.796 63.8693 384.38 64.328 383.815 64.68C383.25 65.0213 382.578 65.192 381.799 65.192ZM381.799 57.624C381.447 57.624 381.127 57.688 380.839 57.816C380.551 57.9333 380.3 58.104 380.087 58.328C379.884 58.552 379.724 58.8187 379.607 59.128C379.49 59.4267 379.431 59.7573 379.431 60.12V60.232H383.991V60.056C383.991 59.32 383.788 58.7333 383.383 58.296C382.988 57.848 382.46 57.624 381.799 57.624ZM389.956 65.192C389.188 65.192 388.543 65.048 388.02 64.76C387.508 64.4613 387.066 64.0667 386.692 63.576L387.604 62.84C387.924 63.2453 388.282 63.56 388.676 63.784C389.071 63.9973 389.53 64.104 390.052 64.104C390.596 64.104 391.018 63.9867 391.316 63.752C391.626 63.5173 391.78 63.1867 391.78 62.76C391.78 62.44 391.674 62.168 391.46 61.944C391.258 61.7093 390.884 61.5493 390.34 61.464L389.684 61.368C389.3 61.3147 388.948 61.2347 388.628 61.128C388.308 61.0107 388.026 60.8613 387.78 60.68C387.546 60.488 387.359 60.2533 387.22 59.976C387.092 59.6987 387.028 59.368 387.028 58.984C387.028 58.5787 387.103 58.2267 387.252 57.928C387.402 57.6187 387.604 57.3627 387.86 57.16C388.127 56.9573 388.442 56.808 388.804 56.712C389.167 56.6053 389.556 56.552 389.972 56.552C390.644 56.552 391.204 56.6693 391.652 56.904C392.111 57.1387 392.511 57.464 392.852 57.88L392.004 58.648C391.823 58.392 391.556 58.1627 391.204 57.96C390.852 57.7467 390.41 57.64 389.876 57.64C389.343 57.64 388.938 57.7573 388.66 57.992C388.394 58.216 388.26 58.5253 388.26 58.92C388.26 59.3253 388.394 59.6187 388.66 59.8C388.938 59.9813 389.332 60.1147 389.844 60.2L390.484 60.296C391.402 60.4347 392.052 60.7013 392.436 61.096C392.82 61.48 393.012 61.9867 393.012 62.616C393.012 63.416 392.74 64.0453 392.196 64.504C391.652 64.9627 390.906 65.192 389.956 65.192ZM395.273 56.744H396.553V58.088H396.617C396.83 57.5653 397.14 57.1813 397.545 56.936C397.961 56.68 398.457 56.552 399.033 56.552C399.545 56.552 400.009 56.6533 400.425 56.856C400.841 57.0587 401.193 57.3467 401.481 57.72C401.78 58.0933 402.004 58.5467 402.153 59.08C402.313 59.6133 402.393 60.2107 402.393 60.872C402.393 61.5333 402.313 62.1307 402.153 62.664C402.004 63.1973 401.78 63.6507 401.481 64.024C401.193 64.3973 400.841 64.6853 400.425 64.888C400.009 65.0907 399.545 65.192 399.033 65.192C397.913 65.192 397.108 64.68 396.617 63.656H396.553V68.2H395.273V56.744ZM398.681 64.04C399.406 64.04 399.977 63.816 400.393 63.368C400.809 62.9093 401.017 62.312 401.017 61.576V60.168C401.017 59.432 400.809 58.84 400.393 58.392C399.977 57.9333 399.406 57.704 398.681 57.704C398.393 57.704 398.116 57.7467 397.849 57.832C397.593 57.9067 397.369 58.0133 397.177 58.152C396.985 58.2907 396.83 58.4613 396.713 58.664C396.606 58.856 396.553 59.064 396.553 59.288V62.36C396.553 62.6267 396.606 62.8667 396.713 63.08C396.83 63.2827 396.985 63.4587 397.177 63.608C397.369 63.7467 397.593 63.8533 397.849 63.928C398.116 64.0027 398.393 64.04 398.681 64.04ZM407.674 65.192C407.12 65.192 406.613 65.0907 406.154 64.888C405.696 64.6853 405.301 64.3973 404.97 64.024C404.65 63.64 404.4 63.1867 404.218 62.664C404.037 62.1307 403.946 61.5333 403.946 60.872C403.946 60.2213 404.037 59.6293 404.218 59.096C404.4 58.5627 404.65 58.1093 404.97 57.736C405.301 57.352 405.696 57.0587 406.154 56.856C406.613 56.6533 407.12 56.552 407.674 56.552C408.229 56.552 408.73 56.6533 409.178 56.856C409.637 57.0587 410.032 57.352 410.362 57.736C410.693 58.1093 410.949 58.5627 411.13 59.096C411.312 59.6293 411.402 60.2213 411.402 60.872C411.402 61.5333 411.312 62.1307 411.13 62.664C410.949 63.1867 410.693 63.64 410.362 64.024C410.032 64.3973 409.637 64.6853 409.178 64.888C408.73 65.0907 408.229 65.192 407.674 65.192ZM407.674 64.056C408.368 64.056 408.933 63.8427 409.37 63.416C409.808 62.9893 410.026 62.3387 410.026 61.464V60.28C410.026 59.4053 409.808 58.7547 409.37 58.328C408.933 57.9013 408.368 57.688 407.674 57.688C406.981 57.688 406.416 57.9013 405.978 58.328C405.541 58.7547 405.322 59.4053 405.322 60.28V61.464C405.322 62.3387 405.541 62.9893 405.978 63.416C406.416 63.8427 406.981 64.056 407.674 64.056ZM413.507 65V56.744H414.787V58.088H414.851C415.054 57.6187 415.337 57.2453 415.699 56.968C416.073 56.6907 416.569 56.552 417.187 56.552C418.041 56.552 418.713 56.8293 419.203 57.384C419.705 57.928 419.955 58.7013 419.955 59.704V65H418.675V59.928C418.675 58.4453 418.051 57.704 416.803 57.704C416.547 57.704 416.297 57.736 416.051 57.8C415.817 57.864 415.603 57.96 415.411 58.088C415.219 58.216 415.065 58.3813 414.947 58.584C414.841 58.776 414.787 59.0053 414.787 59.272V65H413.507ZM427.881 63.656H427.817C427.316 64.68 426.511 65.192 425.401 65.192C424.889 65.192 424.425 65.0907 424.009 64.888C423.593 64.6853 423.236 64.3973 422.937 64.024C422.649 63.6507 422.425 63.1973 422.265 62.664C422.116 62.1307 422.041 61.5333 422.041 60.872C422.041 60.2107 422.116 59.6133 422.265 59.08C422.425 58.5467 422.649 58.0933 422.937 57.72C423.236 57.3467 423.593 57.0587 424.009 56.856C424.425 56.6533 424.889 56.552 425.401 56.552C425.977 56.552 426.468 56.68 426.873 56.936C427.289 57.1813 427.604 57.5653 427.817 58.088H427.881V53.16H429.161V65H427.881V63.656ZM425.753 64.04C426.041 64.04 426.313 64.0027 426.569 63.928C426.836 63.8533 427.065 63.7467 427.257 63.608C427.449 63.4587 427.599 63.2827 427.705 63.08C427.823 62.8667 427.881 62.6267 427.881 62.36V59.288C427.881 59.064 427.823 58.856 427.705 58.664C427.599 58.4613 427.449 58.2907 427.257 58.152C427.065 58.0133 426.836 57.9067 426.569 57.832C426.313 57.7467 426.041 57.704 425.753 57.704C425.028 57.704 424.457 57.9333 424.041 58.392C423.625 58.84 423.417 59.432 423.417 60.168V61.576C423.417 62.312 423.625 62.9093 424.041 63.368C424.457 63.816 425.028 64.04 425.753 64.04ZM434.986 65.192C434.421 65.192 433.909 65.0907 433.45 64.888C433.002 64.6853 432.613 64.3973 432.282 64.024C431.962 63.64 431.712 63.1867 431.53 62.664C431.36 62.1307 431.274 61.5333 431.274 60.872C431.274 60.2213 431.36 59.6293 431.53 59.096C431.712 58.5627 431.962 58.1093 432.282 57.736C432.613 57.352 433.002 57.0587 433.45 56.856C433.909 56.6533 434.421 56.552 434.986 56.552C435.541 56.552 436.037 56.6533 436.474 56.856C436.912 57.0587 437.285 57.3413 437.594 57.704C437.904 58.056 438.138 58.4773 438.298 58.968C438.469 59.4587 438.554 59.9973 438.554 60.584V61.192H432.618V61.576C432.618 61.928 432.672 62.2587 432.778 62.568C432.896 62.8667 433.056 63.128 433.258 63.352C433.472 63.576 433.728 63.752 434.026 63.88C434.336 64.008 434.682 64.072 435.066 64.072C435.589 64.072 436.042 63.9493 436.426 63.704C436.821 63.4587 437.125 63.1067 437.338 62.648L438.25 63.304C437.984 63.8693 437.568 64.328 437.002 64.68C436.437 65.0213 435.765 65.192 434.986 65.192ZM434.986 57.624C434.634 57.624 434.314 57.688 434.026 57.816C433.738 57.9333 433.488 58.104 433.274 58.328C433.072 58.552 432.912 58.8187 432.794 59.128C432.677 59.4267 432.618 59.7573 432.618 60.12V60.232H437.178V60.056C437.178 59.32 436.976 58.7333 436.57 58.296C436.176 57.848 435.648 57.624 434.986 57.624ZM440.664 65V56.744H441.944V58.264H442.024C442.173 57.8693 442.44 57.5173 442.824 57.208C443.208 56.8987 443.736 56.744 444.408 56.744H444.904V58.024H444.152C443.458 58.024 442.914 58.1573 442.52 58.424C442.136 58.68 441.944 59.0053 441.944 59.4V65H440.664Z" fill="#F2F2FA"/>
<circle cx="485.572" cy="58.9998" r="7.46429" stroke="#7EDDD3" stroke-width="1.35714"/>
<path d="M510.236 65.192C509.51 65.192 508.854 65.0693 508.268 64.824C507.692 64.568 507.196 64.2 506.78 63.72C506.374 63.2293 506.06 62.6267 505.836 61.912C505.612 61.1867 505.5 60.3547 505.5 59.416C505.5 58.4773 505.612 57.6507 505.836 56.936C506.06 56.2213 506.374 55.6187 506.78 55.128C507.196 54.6373 507.692 54.2693 508.268 54.024C508.854 53.768 509.51 53.64 510.236 53.64C510.95 53.64 511.601 53.768 512.188 54.024C512.774 54.2693 513.27 54.6373 513.676 55.128C514.092 55.6187 514.412 56.2213 514.636 56.936C514.86 57.6507 514.972 58.4773 514.972 59.416C514.972 60.3547 514.86 61.1867 514.636 61.912C514.412 62.6267 514.092 63.2293 513.676 63.72C513.27 64.2 512.774 64.568 512.188 64.824C511.601 65.0693 510.95 65.192 510.236 65.192ZM510.236 63.992C510.716 63.992 511.158 63.9067 511.564 63.736C511.969 63.5653 512.316 63.32 512.604 63C512.902 62.68 513.132 62.296 513.292 61.848C513.452 61.4 513.532 60.8987 513.532 60.344V58.488C513.532 57.9333 513.452 57.432 513.292 56.984C513.132 56.536 512.902 56.152 512.604 55.832C512.316 55.512 511.969 55.2667 511.564 55.096C511.158 54.9253 510.716 54.84 510.236 54.84C509.756 54.84 509.313 54.9253 508.908 55.096C508.502 55.2667 508.15 55.512 507.852 55.832C507.564 56.152 507.34 56.536 507.18 56.984C507.02 57.432 506.94 57.9333 506.94 58.488V60.344C506.94 60.8987 507.02 61.4 507.18 61.848C507.34 62.296 507.564 62.68 507.852 63C508.15 63.32 508.502 63.5653 508.908 63.736C509.313 63.9067 509.756 63.992 510.236 63.992ZM522.348 63.656H522.284C522.199 63.848 522.092 64.04 521.964 64.232C521.847 64.4133 521.697 64.5787 521.516 64.728C521.335 64.8667 521.116 64.9787 520.86 65.064C520.604 65.1493 520.305 65.192 519.964 65.192C519.111 65.192 518.433 64.92 517.932 64.376C517.431 63.8213 517.18 63.0427 517.18 62.04V56.744H518.46V61.816C518.46 63.2987 519.089 64.04 520.348 64.04C520.604 64.04 520.849 64.008 521.084 63.944C521.329 63.88 521.543 63.784 521.724 63.656C521.916 63.528 522.065 63.368 522.172 63.176C522.289 62.9733 522.348 62.7333 522.348 62.456V56.744H523.628V65H522.348V63.656ZM528.178 65C527.73 65 527.388 64.8773 527.154 64.632C526.93 64.376 526.818 64.0453 526.818 63.64V57.864H525.458V56.744H526.226C526.503 56.744 526.69 56.6907 526.786 56.584C526.892 56.4667 526.946 56.2693 526.946 55.992V54.456H528.098V56.744H529.906V57.864H528.098V63.88H529.778V65H528.178ZM531.963 65V56.744H533.243V58.264H533.323C533.472 57.8693 533.739 57.5173 534.123 57.208C534.507 56.8987 535.035 56.744 535.707 56.744H536.203V58.024H535.451C534.758 58.024 534.214 58.1573 533.819 58.424C533.435 58.68 533.243 59.0053 533.243 59.4V65H531.963ZM540.88 65.192C540.325 65.192 539.819 65.0907 539.36 64.888C538.901 64.6853 538.507 64.3973 538.176 64.024C537.856 63.64 537.605 63.1867 537.424 62.664C537.243 62.1307 537.152 61.5333 537.152 60.872C537.152 60.2213 537.243 59.6293 537.424 59.096C537.605 58.5627 537.856 58.1093 538.176 57.736C538.507 57.352 538.901 57.0587 539.36 56.856C539.819 56.6533 540.325 56.552 540.88 56.552C541.435 56.552 541.936 56.6533 542.384 56.856C542.843 57.0587 543.237 57.352 543.568 57.736C543.899 58.1093 544.155 58.5627 544.336 59.096C544.517 59.6293 544.608 60.2213 544.608 60.872C544.608 61.5333 544.517 62.1307 544.336 62.664C544.155 63.1867 543.899 63.64 543.568 64.024C543.237 64.3973 542.843 64.6853 542.384 64.888C541.936 65.0907 541.435 65.192 540.88 65.192ZM540.88 64.056C541.573 64.056 542.139 63.8427 542.576 63.416C543.013 62.9893 543.232 62.3387 543.232 61.464V60.28C543.232 59.4053 543.013 58.7547 542.576 58.328C542.139 57.9013 541.573 57.688 540.88 57.688C540.187 57.688 539.621 57.9013 539.184 58.328C538.747 58.7547 538.528 59.4053 538.528 60.28V61.464C538.528 62.3387 538.747 62.9893 539.184 63.416C539.621 63.8427 540.187 64.056 540.88 64.056Z" fill="#F2F2FA"/>
</svg>
