<svg width="420" height="86" viewBox="0 0 420 86" fill="none" xmlns="http://www.w3.org/2000/svg">
<path d="M8.128 19.624H6.48C6.032 19.624 5.696 19.496 5.472 19.24C5.248 18.9947 5.136 18.6853 5.136 18.312V17.176C4.496 17.112 3.91467 16.9413 3.392 16.664C2.86933 16.3867 2.42667 16.008 2.064 15.528C1.70133 15.0373 1.41867 14.4507 1.216 13.768C1.024 13.0747 0.928 12.2907 0.928 11.416C0.928 10.4773 1.04 9.65067 1.264 8.936C1.488 8.22133 1.80267 7.61867 2.208 7.128C2.624 6.63733 3.12 6.26933 3.696 6.024C4.28267 5.768 4.93867 5.64 5.664 5.64C6.37867 5.64 7.02933 5.768 7.616 6.024C8.20267 6.26933 8.69867 6.63733 9.104 7.128C9.52 7.61867 9.84 8.22133 10.064 8.936C10.288 9.65067 10.4 10.4773 10.4 11.416C10.4 13.1333 10.0427 14.4773 9.328 15.448C8.61333 16.408 7.64267 16.9733 6.416 17.144V18.504H8.128V19.624ZM5.664 15.992C6.144 15.992 6.58667 15.9067 6.992 15.736C7.39733 15.5653 7.744 15.32 8.032 15C8.33067 14.68 8.56 14.296 8.72 13.848C8.88 13.4 8.96 12.8987 8.96 12.344V10.488C8.96 9.93333 8.88 9.432 8.72 8.984C8.56 8.536 8.33067 8.152 8.032 7.832C7.744 7.512 7.39733 7.26667 6.992 7.096C6.58667 6.92533 6.144 6.84 5.664 6.84C5.184 6.84 4.74133 6.92533 4.336 7.096C3.93067 7.26667 3.57867 7.512 3.28 7.832C2.992 8.152 2.768 8.536 2.608 8.984C2.448 9.432 2.368 9.93333 2.368 10.488V12.344C2.368 12.8987 2.448 13.4 2.608 13.848C2.768 14.296 2.992 14.68 3.28 15C3.57867 15.32 3.93067 15.5653 4.336 15.736C4.74133 15.9067 5.184 15.992 5.664 15.992ZM17.7761 15.656H17.7121C17.6268 15.848 17.5201 16.04 17.3921 16.232C17.2748 16.4133 17.1255 16.5787 16.9441 16.728C16.7628 16.8667 16.5441 16.9787 16.2881 17.064C16.0321 17.1493 15.7335 17.192 15.3921 17.192C14.5388 17.192 13.8615 16.92 13.3601 16.376C12.8588 15.8213 12.6081 15.0427 12.6081 14.04V8.744H13.8881V13.816C13.8881 15.2987 14.5175 16.04 15.7761 16.04C16.0321 16.04 16.2775 16.008 16.5121 15.944C16.7575 15.88 16.9708 15.784 17.1521 15.656C17.3441 15.528 17.4935 15.368 17.6001 15.176C17.7175 14.9733 17.7761 14.7333 17.7761 14.456V8.744H19.0561V17H17.7761V15.656ZM27.7819 17C27.3019 17 26.9552 16.872 26.7419 16.616C26.5392 16.36 26.4112 16.04 26.3579 15.656H26.2779C26.0965 16.168 25.7979 16.552 25.3819 16.808C24.9659 17.064 24.4699 17.192 23.8939 17.192C23.0192 17.192 22.3365 16.968 21.8459 16.52C21.3659 16.072 21.1259 15.464 21.1259 14.696C21.1259 13.9173 21.4085 13.32 21.9739 12.904C22.5499 12.488 23.4405 12.28 24.6459 12.28H26.2779V11.464C26.2779 10.8773 26.1179 10.4293 25.7979 10.12C25.4779 9.81067 24.9872 9.656 24.3259 9.656C23.8245 9.656 23.4032 9.768 23.0619 9.992C22.7312 10.216 22.4539 10.5147 22.2299 10.888L21.4619 10.168C21.6859 9.72 22.0432 9.34133 22.5339 9.032C23.0245 8.712 23.6432 8.552 24.3899 8.552C25.3925 8.552 26.1712 8.79733 26.7259 9.288C27.2805 9.77867 27.5579 10.4613 27.5579 11.336V15.88H28.5019V17H27.7819ZM24.1019 16.104C24.4219 16.104 24.7152 16.0667 24.9819 15.992C25.2485 15.9173 25.4779 15.8107 25.6699 15.672C25.8619 15.5333 26.0112 15.3733 26.1179 15.192C26.2245 15.0107 26.2779 14.8133 26.2779 14.6V13.24H24.5819C23.8459 13.24 23.3072 13.3467 22.9659 13.56C22.6352 13.7733 22.4699 14.0827 22.4699 14.488V14.824C22.4699 15.2293 22.6139 15.544 22.9019 15.768C23.2005 15.992 23.6005 16.104 24.1019 16.104ZM31.6888 17C31.2408 17 30.8994 16.8773 30.6648 16.632C30.4408 16.376 30.3288 16.056 30.3288 15.672V5.16H31.6088V15.88H32.8248V17H31.6888ZM40.9494 17.192C40.1814 17.192 39.536 17.048 39.0134 16.76C38.5014 16.4613 38.0587 16.0667 37.6854 15.576L38.5974 14.84C38.9174 15.2453 39.2747 15.56 39.6694 15.784C40.064 15.9973 40.5227 16.104 41.0454 16.104C41.5894 16.104 42.0107 15.9867 42.3094 15.752C42.6187 15.5173 42.7734 15.1867 42.7734 14.76C42.7734 14.44 42.6667 14.168 42.4534 13.944C42.2507 13.7093 41.8774 13.5493 41.3334 13.464L40.6774 13.368C40.2934 13.3147 39.9414 13.2347 39.6214 13.128C39.3014 13.0107 39.0187 12.8613 38.7734 12.68C38.5387 12.488 38.352 12.2533 38.2134 11.976C38.0854 11.6987 38.0214 11.368 38.0214 10.984C38.0214 10.5787 38.096 10.2267 38.2454 9.928C38.3947 9.61867 38.5974 9.36267 38.8534 9.16C39.12 8.95733 39.4347 8.808 39.7974 8.712C40.16 8.60533 40.5494 8.552 40.9654 8.552C41.6374 8.552 42.1974 8.66933 42.6454 8.904C43.104 9.13867 43.504 9.464 43.8454 9.88L42.9974 10.648C42.816 10.392 42.5494 10.1627 42.1974 9.96C41.8454 9.74667 41.4027 9.64 40.8694 9.64C40.336 9.64 39.9307 9.75733 39.6534 9.992C39.3867 10.216 39.2534 10.5253 39.2534 10.92C39.2534 11.3253 39.3867 11.6187 39.6534 11.8C39.9307 11.9813 40.3254 12.1147 40.8374 12.2L41.4774 12.296C42.3947 12.4347 43.0454 12.7013 43.4294 13.096C43.8134 13.48 44.0054 13.9867 44.0054 14.616C44.0054 15.416 43.7334 16.0453 43.1894 16.504C42.6454 16.9627 41.8987 17.192 40.9494 17.192ZM49.3703 17.192C48.8049 17.192 48.2929 17.0907 47.8343 16.888C47.3863 16.6853 46.9969 16.3973 46.6663 16.024C46.3463 15.64 46.0956 15.1867 45.9143 14.664C45.7436 14.1307 45.6583 13.5333 45.6583 12.872C45.6583 12.2213 45.7436 11.6293 45.9143 11.096C46.0956 10.5627 46.3463 10.1093 46.6663 9.736C46.9969 9.352 47.3863 9.05867 47.8343 8.856C48.2929 8.65333 48.8049 8.552 49.3703 8.552C49.9249 8.552 50.4209 8.65333 50.8583 8.856C51.2956 9.05867 51.6689 9.34133 51.9783 9.704C52.2876 10.056 52.5223 10.4773 52.6823 10.968C52.8529 11.4587 52.9383 11.9973 52.9383 12.584V13.192H47.0023V13.576C47.0023 13.928 47.0556 14.2587 47.1623 14.568C47.2796 14.8667 47.4396 15.128 47.6423 15.352C47.8556 15.576 48.1116 15.752 48.4103 15.88C48.7196 16.008 49.0663 16.072 49.4503 16.072C49.9729 16.072 50.4263 15.9493 50.8103 15.704C51.2049 15.4587 51.5089 15.1067 51.7223 14.648L52.6343 15.304C52.3676 15.8693 51.9516 16.328 51.3863 16.68C50.8209 17.0213 50.1489 17.192 49.3703 17.192ZM49.3703 9.624C49.0183 9.624 48.6983 9.688 48.4103 9.816C48.1223 9.93333 47.8716 10.104 47.6583 10.328C47.4556 10.552 47.2956 10.8187 47.1783 11.128C47.0609 11.4267 47.0023 11.7573 47.0023 12.12V12.232H51.5623V12.056C51.5623 11.32 51.3596 10.7333 50.9543 10.296C50.5596 9.848 50.0316 9.624 49.3703 9.624ZM60.1355 15.656H60.0715C59.9862 15.848 59.8795 16.04 59.7515 16.232C59.6342 16.4133 59.4848 16.5787 59.3035 16.728C59.1222 16.8667 58.9035 16.9787 58.6475 17.064C58.3915 17.1493 58.0928 17.192 57.7515 17.192C56.8982 17.192 56.2208 16.92 55.7195 16.376C55.2182 15.8213 54.9675 15.0427 54.9675 14.04V8.744H56.2475V13.816C56.2475 15.2987 56.8768 16.04 58.1355 16.04C58.3915 16.04 58.6368 16.008 58.8715 15.944C59.1168 15.88 59.3302 15.784 59.5115 15.656C59.7035 15.528 59.8528 15.368 59.9595 15.176C60.0768 14.9733 60.1355 14.7333 60.1355 14.456V8.744H61.4155V17H60.1355V15.656ZM71.0425 17.192C70.4878 17.192 69.9812 17.0907 69.5225 16.888C69.0638 16.6853 68.6692 16.3973 68.3385 16.024C68.0185 15.64 67.7678 15.1867 67.5865 14.664C67.4052 14.1307 67.3145 13.5333 67.3145 12.872C67.3145 12.2213 67.4052 11.6293 67.5865 11.096C67.7678 10.5627 68.0185 10.1093 68.3385 9.736C68.6692 9.352 69.0638 9.05867 69.5225 8.856C69.9812 8.65333 70.4878 8.552 71.0425 8.552C71.5972 8.552 72.0985 8.65333 72.5465 8.856C73.0052 9.05867 73.3998 9.352 73.7305 9.736C74.0612 10.1093 74.3172 10.5627 74.4985 11.096C74.6798 11.6293 74.7705 12.2213 74.7705 12.872C74.7705 13.5333 74.6798 14.1307 74.4985 14.664C74.3172 15.1867 74.0612 15.64 73.7305 16.024C73.3998 16.3973 73.0052 16.6853 72.5465 16.888C72.0985 17.0907 71.5972 17.192 71.0425 17.192ZM71.0425 16.056C71.7358 16.056 72.3012 15.8427 72.7385 15.416C73.1758 14.9893 73.3945 14.3387 73.3945 13.464V12.28C73.3945 11.4053 73.1758 10.7547 72.7385 10.328C72.3012 9.90133 71.7358 9.688 71.0425 9.688C70.3492 9.688 69.7838 9.90133 69.3465 10.328C68.9092 10.7547 68.6905 11.4053 68.6905 12.28V13.464C68.6905 14.3387 68.9092 14.9893 69.3465 15.416C69.7838 15.8427 70.3492 16.056 71.0425 16.056ZM76.8756 5.16H78.1556V10.088H78.2196C78.433 9.56533 78.7423 9.18133 79.1476 8.936C79.5636 8.68 80.0596 8.552 80.6356 8.552C81.1476 8.552 81.6116 8.65333 82.0276 8.856C82.4436 9.05867 82.7956 9.34667 83.0836 9.72C83.3823 10.0933 83.6063 10.5467 83.7556 11.08C83.9156 11.6133 83.9956 12.2107 83.9956 12.872C83.9956 13.5333 83.9156 14.1307 83.7556 14.664C83.6063 15.1973 83.3823 15.6507 83.0836 16.024C82.7956 16.3973 82.4436 16.6853 82.0276 16.888C81.6116 17.0907 81.1476 17.192 80.6356 17.192C79.5156 17.192 78.7103 16.68 78.2196 15.656H78.1556V17H76.8756V5.16ZM80.2836 16.04C81.009 16.04 81.5796 15.816 81.9956 15.368C82.4116 14.9093 82.6196 14.312 82.6196 13.576V12.168C82.6196 11.432 82.4116 10.84 81.9956 10.392C81.5796 9.93333 81.009 9.704 80.2836 9.704C79.9956 9.704 79.7183 9.74667 79.4516 9.832C79.1956 9.90667 78.9716 10.0133 78.7796 10.152C78.5876 10.2907 78.433 10.4613 78.3156 10.664C78.209 10.856 78.1556 11.064 78.1556 11.288V14.36C78.1556 14.6267 78.209 14.8667 78.3156 15.08C78.433 15.2827 78.5876 15.4587 78.7796 15.608C78.9716 15.7467 79.1956 15.8533 79.4516 15.928C79.7183 16.0027 79.9956 16.04 80.2836 16.04ZM86.1569 8.744H87.4369V18.28C87.4369 18.856 87.2929 19.32 87.0049 19.672C86.7169 20.024 86.2635 20.2 85.6449 20.2H84.8129V19.08H86.1569V8.744ZM86.7969 6.808C86.5195 6.808 86.3169 6.744 86.1889 6.616C86.0715 6.47733 86.0129 6.30133 86.0129 6.088V5.88C86.0129 5.66667 86.0715 5.496 86.1889 5.368C86.3169 5.22933 86.5195 5.16 86.7969 5.16C87.0742 5.16 87.2715 5.22933 87.3889 5.368C87.5169 5.496 87.5809 5.66667 87.5809 5.88V6.088C87.5809 6.30133 87.5169 6.47733 87.3889 6.616C87.2715 6.744 87.0742 6.808 86.7969 6.808ZM93.2609 17.192C92.6955 17.192 92.1835 17.0907 91.7249 16.888C91.2769 16.6853 90.8875 16.3973 90.5569 16.024C90.2369 15.64 89.9862 15.1867 89.8049 14.664C89.6342 14.1307 89.5489 13.5333 89.5489 12.872C89.5489 12.2213 89.6342 11.6293 89.8049 11.096C89.9862 10.5627 90.2369 10.1093 90.5569 9.736C90.8875 9.352 91.2769 9.05867 91.7249 8.856C92.1835 8.65333 92.6955 8.552 93.2609 8.552C93.8155 8.552 94.3115 8.65333 94.7489 8.856C95.1862 9.05867 95.5595 9.34133 95.8689 9.704C96.1782 10.056 96.4129 10.4773 96.5729 10.968C96.7435 11.4587 96.8289 11.9973 96.8289 12.584V13.192H90.8929V13.576C90.8929 13.928 90.9462 14.2587 91.0529 14.568C91.1702 14.8667 91.3302 15.128 91.5329 15.352C91.7462 15.576 92.0022 15.752 92.3009 15.88C92.6102 16.008 92.9569 16.072 93.3409 16.072C93.8635 16.072 94.3169 15.9493 94.7009 15.704C95.0955 15.4587 95.3995 15.1067 95.6129 14.648L96.5249 15.304C96.2582 15.8693 95.8422 16.328 95.2769 16.68C94.7115 17.0213 94.0395 17.192 93.2609 17.192ZM93.2609 9.624C92.9089 9.624 92.5889 9.688 92.3009 9.816C92.0129 9.93333 91.7622 10.104 91.5489 10.328C91.3462 10.552 91.1862 10.8187 91.0689 11.128C90.9515 11.4267 90.8929 11.7573 90.8929 12.12V12.232H95.4529V12.056C95.4529 11.32 95.2502 10.7333 94.8449 10.296C94.4502 9.848 93.9222 9.624 93.2609 9.624ZM100.762 17C100.314 17 99.9728 16.8773 99.7381 16.632C99.5141 16.376 99.4021 16.0453 99.4021 15.64V9.864H98.0421V8.744H98.8101C99.0875 8.744 99.2741 8.69067 99.3701 8.584C99.4768 8.46667 99.5301 8.26933 99.5301 7.992V6.456H100.682V8.744H102.49V9.864H100.682V15.88H102.362V17H100.762ZM105.188 6.808C104.91 6.808 104.708 6.744 104.58 6.616C104.462 6.47733 104.404 6.30133 104.404 6.088V5.88C104.404 5.66667 104.462 5.496 104.58 5.368C104.708 5.22933 104.91 5.16 105.188 5.16C105.465 5.16 105.662 5.22933 105.78 5.368C105.908 5.496 105.972 5.66667 105.972 5.88V6.088C105.972 6.30133 105.908 6.47733 105.78 6.616C105.662 6.744 105.465 6.808 105.188 6.808ZM104.548 8.744H105.828V17H104.548V8.744ZM110.372 17L107.476 8.744H108.756L110.196 12.84L111.092 15.656H111.172L112.068 12.84L113.54 8.744H114.772L111.86 17H110.372ZM119.418 17.192C118.863 17.192 118.356 17.0907 117.898 16.888C117.439 16.6853 117.044 16.3973 116.714 16.024C116.394 15.64 116.143 15.1867 115.962 14.664C115.78 14.1307 115.69 13.5333 115.69 12.872C115.69 12.2213 115.78 11.6293 115.962 11.096C116.143 10.5627 116.394 10.1093 116.714 9.736C117.044 9.352 117.439 9.05867 117.898 8.856C118.356 8.65333 118.863 8.552 119.418 8.552C119.972 8.552 120.474 8.65333 120.922 8.856C121.38 9.05867 121.775 9.352 122.106 9.736C122.436 10.1093 122.692 10.5627 122.874 11.096C123.055 11.6293 123.146 12.2213 123.146 12.872C123.146 13.5333 123.055 14.1307 122.874 14.664C122.692 15.1867 122.436 15.64 122.106 16.024C121.775 16.3973 121.38 16.6853 120.922 16.888C120.474 17.0907 119.972 17.192 119.418 17.192ZM119.418 16.056C120.111 16.056 120.676 15.8427 121.114 15.416C121.551 14.9893 121.77 14.3387 121.77 13.464V12.28C121.77 11.4053 121.551 10.7547 121.114 10.328C120.676 9.90133 120.111 9.688 119.418 9.688C118.724 9.688 118.159 9.90133 117.722 10.328C117.284 10.7547 117.066 11.4053 117.066 12.28V13.464C117.066 14.3387 117.284 14.9893 117.722 15.416C118.159 15.8427 118.724 16.056 119.418 16.056ZM132.104 17.192C131.528 17.192 131.011 17.0907 130.552 16.888C130.093 16.6853 129.704 16.3973 129.384 16.024C129.075 15.6507 128.835 15.1973 128.664 14.664C128.504 14.1307 128.424 13.5333 128.424 12.872C128.424 12.2107 128.504 11.6133 128.664 11.08C128.835 10.5467 129.075 10.0933 129.384 9.72C129.704 9.34667 130.093 9.05867 130.552 8.856C131.011 8.65333 131.528 8.552 132.104 8.552C132.925 8.552 133.581 8.73333 134.072 9.096C134.573 9.448 134.947 9.912 135.192 10.488L134.12 11.032C133.971 10.6053 133.725 10.2747 133.384 10.04C133.043 9.80533 132.616 9.688 132.104 9.688C131.72 9.688 131.384 9.752 131.096 9.88C130.808 9.99733 130.568 10.168 130.376 10.392C130.184 10.6053 130.04 10.8667 129.944 11.176C129.848 11.4747 129.8 11.8053 129.8 12.168V13.576C129.8 14.3013 129.992 14.8987 130.376 15.368C130.771 15.8267 131.347 16.056 132.104 16.056C133.139 16.056 133.885 15.576 134.344 14.616L135.272 15.24C135.005 15.8373 134.605 16.312 134.072 16.664C133.549 17.016 132.893 17.192 132.104 17.192ZM140.105 17.192C139.55 17.192 139.044 17.0907 138.585 16.888C138.126 16.6853 137.732 16.3973 137.401 16.024C137.081 15.64 136.83 15.1867 136.649 14.664C136.468 14.1307 136.377 13.5333 136.377 12.872C136.377 12.2213 136.468 11.6293 136.649 11.096C136.83 10.5627 137.081 10.1093 137.401 9.736C137.732 9.352 138.126 9.05867 138.585 8.856C139.044 8.65333 139.55 8.552 140.105 8.552C140.66 8.552 141.161 8.65333 141.609 8.856C142.068 9.05867 142.462 9.352 142.793 9.736C143.124 10.1093 143.38 10.5627 143.561 11.096C143.742 11.6293 143.833 12.2213 143.833 12.872C143.833 13.5333 143.742 14.1307 143.561 14.664C143.38 15.1867 143.124 15.64 142.793 16.024C142.462 16.3973 142.068 16.6853 141.609 16.888C141.161 17.0907 140.66 17.192 140.105 17.192ZM140.105 16.056C140.798 16.056 141.364 15.8427 141.801 15.416C142.238 14.9893 142.457 14.3387 142.457 13.464V12.28C142.457 11.4053 142.238 10.7547 141.801 10.328C141.364 9.90133 140.798 9.688 140.105 9.688C139.412 9.688 138.846 9.90133 138.409 10.328C137.972 10.7547 137.753 11.4053 137.753 12.28V13.464C137.753 14.3387 137.972 14.9893 138.409 15.416C138.846 15.8427 139.412 16.056 140.105 16.056ZM145.938 17V8.744H147.218V10.088H147.282C147.378 9.87467 147.485 9.67733 147.602 9.496C147.73 9.304 147.879 9.13867 148.05 9C148.231 8.86133 148.439 8.75467 148.674 8.68C148.909 8.59467 149.186 8.552 149.506 8.552C150.05 8.552 150.551 8.68533 151.01 8.952C151.469 9.208 151.81 9.63467 152.034 10.232H152.066C152.215 9.784 152.493 9.39467 152.898 9.064C153.314 8.72267 153.874 8.552 154.578 8.552C155.421 8.552 156.077 8.82933 156.546 9.384C157.026 9.928 157.266 10.7013 157.266 11.704V17H155.986V11.928C155.986 11.192 155.842 10.6373 155.554 10.264C155.266 9.89067 154.807 9.704 154.178 9.704C153.922 9.704 153.677 9.736 153.442 9.8C153.218 9.864 153.015 9.96 152.834 10.088C152.653 10.216 152.509 10.3813 152.402 10.584C152.295 10.776 152.242 11.0053 152.242 11.272V17H150.962V11.928C150.962 11.192 150.818 10.6373 150.53 10.264C150.242 9.89067 149.794 9.704 149.186 9.704C148.93 9.704 148.685 9.736 148.45 9.8C148.215 9.864 148.007 9.96 147.826 10.088C147.645 10.216 147.495 10.3813 147.378 10.584C147.271 10.776 147.218 11.0053 147.218 11.272V17H145.938ZM169.688 17C169.208 17 168.861 16.872 168.648 16.616C168.445 16.36 168.317 16.04 168.264 15.656H168.184C168.003 16.168 167.704 16.552 167.288 16.808C166.872 17.064 166.376 17.192 165.8 17.192C164.925 17.192 164.243 16.968 163.752 16.52C163.272 16.072 163.032 15.464 163.032 14.696C163.032 13.9173 163.315 13.32 163.88 12.904C164.456 12.488 165.347 12.28 166.552 12.28H168.184V11.464C168.184 10.8773 168.024 10.4293 167.704 10.12C167.384 9.81067 166.893 9.656 166.232 9.656C165.731 9.656 165.309 9.768 164.968 9.992C164.637 10.216 164.36 10.5147 164.136 10.888L163.368 10.168C163.592 9.72 163.949 9.34133 164.44 9.032C164.931 8.712 165.549 8.552 166.296 8.552C167.299 8.552 168.077 8.79733 168.632 9.288C169.187 9.77867 169.464 10.4613 169.464 11.336V15.88H170.408V17H169.688ZM166.008 16.104C166.328 16.104 166.621 16.0667 166.888 15.992C167.155 15.9173 167.384 15.8107 167.576 15.672C167.768 15.5333 167.917 15.3733 168.024 15.192C168.131 15.0107 168.184 14.8133 168.184 14.6V13.24H166.488C165.752 13.24 165.213 13.3467 164.872 13.56C164.541 13.7733 164.376 14.0827 164.376 14.488V14.824C164.376 15.2293 164.52 15.544 164.808 15.768C165.107 15.992 165.507 16.104 166.008 16.104ZM176.016 8.744H177.296V10.088H177.36C177.574 9.56533 177.883 9.18133 178.288 8.936C178.704 8.68 179.2 8.552 179.776 8.552C180.288 8.552 180.752 8.65333 181.168 8.856C181.584 9.05867 181.936 9.34667 182.224 9.72C182.523 10.0933 182.747 10.5467 182.896 11.08C183.056 11.6133 183.136 12.2107 183.136 12.872C183.136 13.5333 183.056 14.1307 182.896 14.664C182.747 15.1973 182.523 15.6507 182.224 16.024C181.936 16.3973 181.584 16.6853 181.168 16.888C180.752 17.0907 180.288 17.192 179.776 17.192C178.656 17.192 177.851 16.68 177.36 15.656H177.296V20.2H176.016V8.744ZM179.424 16.04C180.15 16.04 180.72 15.816 181.136 15.368C181.552 14.9093 181.76 14.312 181.76 13.576V12.168C181.76 11.432 181.552 10.84 181.136 10.392C180.72 9.93333 180.15 9.704 179.424 9.704C179.136 9.704 178.859 9.74667 178.592 9.832C178.336 9.90667 178.112 10.0133 177.92 10.152C177.728 10.2907 177.574 10.4613 177.456 10.664C177.35 10.856 177.296 11.064 177.296 11.288V14.36C177.296 14.6267 177.35 14.8667 177.456 15.08C177.574 15.2827 177.728 15.4587 177.92 15.608C178.112 15.7467 178.336 15.8533 178.592 15.928C178.859 16.0027 179.136 16.04 179.424 16.04ZM186.658 17C186.21 17 185.868 16.8773 185.634 16.632C185.41 16.376 185.298 16.056 185.298 15.672V5.16H186.578V15.88H187.794V17H186.658ZM195.657 17C195.177 17 194.83 16.872 194.617 16.616C194.414 16.36 194.286 16.04 194.233 15.656H194.153C193.972 16.168 193.673 16.552 193.257 16.808C192.841 17.064 192.345 17.192 191.769 17.192C190.894 17.192 190.212 16.968 189.721 16.52C189.241 16.072 189.001 15.464 189.001 14.696C189.001 13.9173 189.284 13.32 189.849 12.904C190.425 12.488 191.316 12.28 192.521 12.28H194.153V11.464C194.153 10.8773 193.993 10.4293 193.673 10.12C193.353 9.81067 192.862 9.656 192.201 9.656C191.7 9.656 191.278 9.768 190.937 9.992C190.606 10.216 190.329 10.5147 190.105 10.888L189.337 10.168C189.561 9.72 189.918 9.34133 190.409 9.032C190.9 8.712 191.518 8.552 192.265 8.552C193.268 8.552 194.046 8.79733 194.601 9.288C195.156 9.77867 195.433 10.4613 195.433 11.336V15.88H196.377V17H195.657ZM191.977 16.104C192.297 16.104 192.59 16.0667 192.857 15.992C193.124 15.9173 193.353 15.8107 193.545 15.672C193.737 15.5333 193.886 15.3733 193.993 15.192C194.1 15.0107 194.153 14.8133 194.153 14.6V13.24H192.457C191.721 13.24 191.182 13.3467 190.841 13.56C190.51 13.7733 190.345 14.0827 190.345 14.488V14.824C190.345 15.2293 190.489 15.544 190.777 15.768C191.076 15.992 191.476 16.104 191.977 16.104ZM200.028 17C199.58 17 199.238 16.8773 199.004 16.632C198.78 16.376 198.668 16.0453 198.668 15.64V9.864H197.308V8.744H198.076C198.353 8.744 198.54 8.69067 198.636 8.584C198.742 8.46667 198.796 8.26933 198.796 7.992V6.456H199.948V8.744H201.756V9.864H199.948V15.88H201.628V17H200.028ZM209.813 17C209.333 17 208.986 16.872 208.773 16.616C208.57 16.36 208.442 16.04 208.389 15.656H208.309C208.128 16.168 207.829 16.552 207.413 16.808C206.997 17.064 206.501 17.192 205.925 17.192C205.05 17.192 204.368 16.968 203.877 16.52C203.397 16.072 203.157 15.464 203.157 14.696C203.157 13.9173 203.44 13.32 204.005 12.904C204.581 12.488 205.472 12.28 206.677 12.28H208.309V11.464C208.309 10.8773 208.149 10.4293 207.829 10.12C207.509 9.81067 207.018 9.656 206.357 9.656C205.856 9.656 205.434 9.768 205.093 9.992C204.762 10.216 204.485 10.5147 204.261 10.888L203.493 10.168C203.717 9.72 204.074 9.34133 204.565 9.032C205.056 8.712 205.674 8.552 206.421 8.552C207.424 8.552 208.202 8.79733 208.757 9.288C209.312 9.77867 209.589 10.4613 209.589 11.336V15.88H210.533V17H209.813ZM206.133 16.104C206.453 16.104 206.746 16.0667 207.013 15.992C207.28 15.9173 207.509 15.8107 207.701 15.672C207.893 15.5333 208.042 15.3733 208.149 15.192C208.256 15.0107 208.309 14.8133 208.309 14.6V13.24H206.613C205.877 13.24 205.338 13.3467 204.997 13.56C204.666 13.7733 204.501 14.0827 204.501 14.488V14.824C204.501 15.2293 204.645 15.544 204.933 15.768C205.232 15.992 205.632 16.104 206.133 16.104ZM212.808 9.864H211.464V8.744H212.808V7.08C212.808 6.504 212.957 6.04 213.256 5.688C213.555 5.336 214.008 5.16 214.616 5.16H215.864V6.28H214.088V8.744H215.864V9.864H214.088V17H212.808V9.864ZM220.605 17.192C220.05 17.192 219.544 17.0907 219.085 16.888C218.626 16.6853 218.232 16.3973 217.901 16.024C217.581 15.64 217.33 15.1867 217.149 14.664C216.968 14.1307 216.877 13.5333 216.877 12.872C216.877 12.2213 216.968 11.6293 217.149 11.096C217.33 10.5627 217.581 10.1093 217.901 9.736C218.232 9.352 218.626 9.05867 219.085 8.856C219.544 8.65333 220.05 8.552 220.605 8.552C221.16 8.552 221.661 8.65333 222.109 8.856C222.568 9.05867 222.962 9.352 223.293 9.736C223.624 10.1093 223.88 10.5627 224.061 11.096C224.242 11.6293 224.333 12.2213 224.333 12.872C224.333 13.5333 224.242 14.1307 224.061 14.664C223.88 15.1867 223.624 15.64 223.293 16.024C222.962 16.3973 222.568 16.6853 222.109 16.888C221.661 17.0907 221.16 17.192 220.605 17.192ZM220.605 16.056C221.298 16.056 221.864 15.8427 222.301 15.416C222.738 14.9893 222.957 14.3387 222.957 13.464V12.28C222.957 11.4053 222.738 10.7547 222.301 10.328C221.864 9.90133 221.298 9.688 220.605 9.688C219.912 9.688 219.346 9.90133 218.909 10.328C218.472 10.7547 218.253 11.4053 218.253 12.28V13.464C218.253 14.3387 218.472 14.9893 218.909 15.416C219.346 15.8427 219.912 16.056 220.605 16.056ZM226.438 17V8.744H227.718V10.264H227.798C227.947 9.86933 228.214 9.51733 228.598 9.208C228.982 8.89867 229.51 8.744 230.182 8.744H230.678V10.024H229.926C229.233 10.024 228.689 10.1573 228.294 10.424C227.91 10.68 227.718 11.0053 227.718 11.4V17H226.438ZM232.313 17V8.744H233.593V10.088H233.657C233.753 9.87467 233.86 9.67733 233.977 9.496C234.105 9.304 234.254 9.13867 234.425 9C234.606 8.86133 234.814 8.75467 235.049 8.68C235.284 8.59467 235.561 8.552 235.881 8.552C236.425 8.552 236.926 8.68533 237.385 8.952C237.844 9.208 238.185 9.63467 238.409 10.232H238.441C238.59 9.784 238.868 9.39467 239.273 9.064C239.689 8.72267 240.249 8.552 240.953 8.552C241.796 8.552 242.452 8.82933 242.921 9.384C243.401 9.928 243.641 10.7013 243.641 11.704V17H242.361V11.928C242.361 11.192 242.217 10.6373 241.929 10.264C241.641 9.89067 241.182 9.704 240.553 9.704C240.297 9.704 240.052 9.736 239.817 9.8C239.593 9.864 239.39 9.96 239.209 10.088C239.028 10.216 238.884 10.3813 238.777 10.584C238.67 10.776 238.617 11.0053 238.617 11.272V17H237.337V11.928C237.337 11.192 237.193 10.6373 236.905 10.264C236.617 9.89067 236.169 9.704 235.561 9.704C235.305 9.704 235.06 9.736 234.825 9.8C234.59 9.864 234.382 9.96 234.201 10.088C234.02 10.216 233.87 10.3813 233.753 10.584C233.646 10.776 233.593 11.0053 233.593 11.272V17H232.313ZM252.282 17C251.802 17 251.455 16.872 251.242 16.616C251.039 16.36 250.911 16.04 250.858 15.656H250.778C250.597 16.168 250.298 16.552 249.882 16.808C249.466 17.064 248.97 17.192 248.394 17.192C247.519 17.192 246.837 16.968 246.346 16.52C245.866 16.072 245.626 15.464 245.626 14.696C245.626 13.9173 245.909 13.32 246.474 12.904C247.05 12.488 247.941 12.28 249.146 12.28H250.778V11.464C250.778 10.8773 250.618 10.4293 250.298 10.12C249.978 9.81067 249.487 9.656 248.826 9.656C248.325 9.656 247.903 9.768 247.562 9.992C247.231 10.216 246.954 10.5147 246.73 10.888L245.962 10.168C246.186 9.72 246.543 9.34133 247.034 9.032C247.525 8.712 248.143 8.552 248.89 8.552C249.893 8.552 250.671 8.79733 251.226 9.288C251.781 9.77867 252.058 10.4613 252.058 11.336V15.88H253.002V17H252.282ZM248.602 16.104C248.922 16.104 249.215 16.0667 249.482 15.992C249.749 15.9173 249.978 15.8107 250.17 15.672C250.362 15.5333 250.511 15.3733 250.618 15.192C250.725 15.0107 250.778 14.8133 250.778 14.6V13.24H249.082C248.346 13.24 247.807 13.3467 247.466 13.56C247.135 13.7733 246.97 14.0827 246.97 14.488V14.824C246.97 15.2293 247.114 15.544 247.402 15.768C247.701 15.992 248.101 16.104 248.602 16.104ZM256.333 13.672V11.048C257.207 11.0053 257.89 10.792 258.381 10.408C258.882 10.024 259.133 9.496 259.133 8.824V8.6C259.133 8.056 258.962 7.624 258.621 7.304C258.279 6.97333 257.821 6.808 257.245 6.808C256.626 6.808 256.13 6.984 255.757 7.336C255.394 7.688 255.149 8.136 255.021 8.68L253.837 8.232C253.933 7.89067 254.071 7.56533 254.253 7.256C254.445 6.936 254.679 6.65867 254.957 6.424C255.245 6.17867 255.581 5.98667 255.965 5.848C256.349 5.70933 256.791 5.64 257.293 5.64C258.285 5.64 259.069 5.912 259.645 6.456C260.221 7 260.509 7.736 260.509 8.664C260.509 9.176 260.418 9.624 260.237 10.008C260.066 10.3813 259.842 10.7013 259.565 10.968C259.287 11.2347 258.973 11.448 258.621 11.608C258.269 11.768 257.917 11.88 257.565 11.944V13.672H256.333ZM256.957 17.192C256.615 17.192 256.365 17.1067 256.205 16.936C256.055 16.7653 255.981 16.5413 255.981 16.264V16.056C255.981 15.7787 256.055 15.5547 256.205 15.384C256.365 15.2133 256.615 15.128 256.957 15.128C257.298 15.128 257.543 15.2133 257.693 15.384C257.853 15.5547 257.933 15.7787 257.933 16.056V16.264C257.933 16.5413 257.853 16.7653 257.693 16.936C257.543 17.1067 257.298 17.192 256.957 17.192Z" fill="#F2F2FA"/>
<rect y="37" width="420" height="49" rx="4" fill="#132634"/>
<path d="M28.624 68.192C27.7173 68.192 26.944 68.0213 26.304 67.68C25.664 67.328 25.12 66.848 24.672 66.24L25.664 65.408C26.0587 65.9307 26.496 66.3307 26.976 66.608C27.456 66.8747 28.0213 67.008 28.672 67.008C29.472 67.008 30.08 66.816 30.496 66.432C30.9227 66.048 31.136 65.536 31.136 64.896C31.136 64.3627 30.976 63.952 30.656 63.664C30.336 63.376 29.808 63.1467 29.072 62.976L28.16 62.768C27.136 62.5333 26.352 62.1813 25.808 61.712C25.2747 61.232 25.008 60.56 25.008 59.696C25.008 59.2053 25.0987 58.768 25.28 58.384C25.4613 58 25.712 57.68 26.032 57.424C26.3627 57.168 26.752 56.976 27.2 56.848C27.6587 56.7093 28.16 56.64 28.704 56.64C29.5467 56.64 30.2667 56.7947 30.864 57.104C31.472 57.4133 31.984 57.8667 32.4 58.464L31.392 59.2C31.0827 58.7733 30.7093 58.4373 30.272 58.192C29.8347 57.9467 29.2907 57.824 28.64 57.824C27.9253 57.824 27.36 57.9787 26.944 58.288C26.5387 58.5867 26.336 59.04 26.336 59.648C26.336 60.1813 26.5067 60.5867 26.848 60.864C27.2 61.1307 27.728 61.344 28.432 61.504L29.344 61.712C30.4427 61.9573 31.2373 62.3307 31.728 62.832C32.2187 63.3333 32.464 64 32.464 64.832C32.464 65.344 32.3733 65.808 32.192 66.224C32.0213 66.64 31.7707 66.992 31.44 67.28C31.1093 67.568 30.704 67.792 30.224 67.952C29.7547 68.112 29.2213 68.192 28.624 68.192ZM37.7609 68.192C37.1955 68.192 36.6835 68.0907 36.2249 67.888C35.7769 67.6853 35.3875 67.3973 35.0569 67.024C34.7369 66.64 34.4862 66.1867 34.3049 65.664C34.1342 65.1307 34.0489 64.5333 34.0489 63.872C34.0489 63.2213 34.1342 62.6293 34.3049 62.096C34.4862 61.5627 34.7369 61.1093 35.0569 60.736C35.3875 60.352 35.7769 60.0587 36.2249 59.856C36.6835 59.6533 37.1955 59.552 37.7609 59.552C38.3155 59.552 38.8115 59.6533 39.2489 59.856C39.6862 60.0587 40.0595 60.3413 40.3689 60.704C40.6782 61.056 40.9129 61.4773 41.0729 61.968C41.2435 62.4587 41.3289 62.9973 41.3289 63.584V64.192H35.3929V64.576C35.3929 64.928 35.4462 65.2587 35.5529 65.568C35.6702 65.8667 35.8302 66.128 36.0329 66.352C36.2462 66.576 36.5022 66.752 36.8009 66.88C37.1102 67.008 37.4569 67.072 37.8409 67.072C38.3635 67.072 38.8169 66.9493 39.2009 66.704C39.5955 66.4587 39.8995 66.1067 40.1129 65.648L41.0249 66.304C40.7582 66.8693 40.3422 67.328 39.7769 67.68C39.2115 68.0213 38.5395 68.192 37.7609 68.192ZM37.7609 60.624C37.4089 60.624 37.0889 60.688 36.8009 60.816C36.5129 60.9333 36.2622 61.104 36.0489 61.328C35.8462 61.552 35.6862 61.8187 35.5689 62.128C35.4515 62.4267 35.3929 62.7573 35.3929 63.12V63.232H39.9529V63.056C39.9529 62.32 39.7502 61.7333 39.3449 61.296C38.9502 60.848 38.4222 60.624 37.7609 60.624ZM44.7981 68C44.3501 68 44.0088 67.8773 43.7741 67.632C43.5501 67.376 43.4381 67.056 43.4381 66.672V56.16H44.7181V66.88H45.9341V68H44.7981ZM50.9015 68.192C50.3362 68.192 49.8242 68.0907 49.3655 67.888C48.9175 67.6853 48.5282 67.3973 48.1975 67.024C47.8775 66.64 47.6268 66.1867 47.4455 65.664C47.2748 65.1307 47.1895 64.5333 47.1895 63.872C47.1895 63.2213 47.2748 62.6293 47.4455 62.096C47.6268 61.5627 47.8775 61.1093 48.1975 60.736C48.5282 60.352 48.9175 60.0587 49.3655 59.856C49.8242 59.6533 50.3362 59.552 50.9015 59.552C51.4562 59.552 51.9522 59.6533 52.3895 59.856C52.8268 60.0587 53.2002 60.3413 53.5095 60.704C53.8188 61.056 54.0535 61.4773 54.2135 61.968C54.3842 62.4587 54.4695 62.9973 54.4695 63.584V64.192H48.5335V64.576C48.5335 64.928 48.5868 65.2587 48.6935 65.568C48.8108 65.8667 48.9708 66.128 49.1735 66.352C49.3868 66.576 49.6428 66.752 49.9415 66.88C50.2508 67.008 50.5975 67.072 50.9815 67.072C51.5042 67.072 51.9575 66.9493 52.3415 66.704C52.7362 66.4587 53.0402 66.1067 53.2535 65.648L54.1655 66.304C53.8988 66.8693 53.4828 67.328 52.9175 67.68C52.3522 68.0213 51.6802 68.192 50.9015 68.192ZM50.9015 60.624C50.5495 60.624 50.2295 60.688 49.9415 60.816C49.6535 60.9333 49.4028 61.104 49.1895 61.328C48.9868 61.552 48.8268 61.8187 48.7095 62.128C48.5922 62.4267 48.5335 62.7573 48.5335 63.12V63.232H53.0935V63.056C53.0935 62.32 52.8908 61.7333 52.4855 61.296C52.0908 60.848 51.5628 60.624 50.9015 60.624ZM59.6508 68.192C59.0748 68.192 58.5574 68.0907 58.0988 67.888C57.6401 67.6853 57.2508 67.3973 56.9308 67.024C56.6214 66.6507 56.3814 66.1973 56.2108 65.664C56.0508 65.1307 55.9708 64.5333 55.9708 63.872C55.9708 63.2107 56.0508 62.6133 56.2108 62.08C56.3814 61.5467 56.6214 61.0933 56.9308 60.72C57.2508 60.3467 57.6401 60.0587 58.0988 59.856C58.5574 59.6533 59.0748 59.552 59.6508 59.552C60.4721 59.552 61.1281 59.7333 61.6188 60.096C62.1201 60.448 62.4934 60.912 62.7388 61.488L61.6668 62.032C61.5174 61.6053 61.2721 61.2747 60.9308 61.04C60.5894 60.8053 60.1628 60.688 59.6508 60.688C59.2668 60.688 58.9308 60.752 58.6428 60.88C58.3548 60.9973 58.1148 61.168 57.9228 61.392C57.7308 61.6053 57.5868 61.8667 57.4908 62.176C57.3948 62.4747 57.3468 62.8053 57.3468 63.168V64.576C57.3468 65.3013 57.5388 65.8987 57.9228 66.368C58.3174 66.8267 58.8934 67.056 59.6508 67.056C60.6854 67.056 61.4321 66.576 61.8908 65.616L62.8188 66.24C62.5521 66.8373 62.1521 67.312 61.6188 67.664C61.0961 68.016 60.4401 68.192 59.6508 68.192ZM65.2656 57.808C64.9883 57.808 64.7856 57.744 64.6576 57.616C64.5403 57.4773 64.4816 57.3013 64.4816 57.088V56.88C64.4816 56.6667 64.5403 56.496 64.6576 56.368C64.7856 56.2293 64.9883 56.16 65.2656 56.16C65.543 56.16 65.7403 56.2293 65.8576 56.368C65.9856 56.496 66.0496 56.6667 66.0496 56.88V57.088C66.0496 57.3013 65.9856 57.4773 65.8576 57.616C65.7403 57.744 65.543 57.808 65.2656 57.808ZM64.6256 59.744H65.9056V68H64.6256V59.744ZM71.7456 68.192C71.191 68.192 70.6843 68.0907 70.2256 67.888C69.767 67.6853 69.3723 67.3973 69.0416 67.024C68.7216 66.64 68.471 66.1867 68.2896 65.664C68.1083 65.1307 68.0176 64.5333 68.0176 63.872C68.0176 63.2213 68.1083 62.6293 68.2896 62.096C68.471 61.5627 68.7216 61.1093 69.0416 60.736C69.3723 60.352 69.767 60.0587 70.2256 59.856C70.6843 59.6533 71.191 59.552 71.7456 59.552C72.3003 59.552 72.8016 59.6533 73.2496 59.856C73.7083 60.0587 74.103 60.352 74.4336 60.736C74.7643 61.1093 75.0203 61.5627 75.2016 62.096C75.383 62.6293 75.4736 63.2213 75.4736 63.872C75.4736 64.5333 75.383 65.1307 75.2016 65.664C75.0203 66.1867 74.7643 66.64 74.4336 67.024C74.103 67.3973 73.7083 67.6853 73.2496 67.888C72.8016 68.0907 72.3003 68.192 71.7456 68.192ZM71.7456 67.056C72.439 67.056 73.0043 66.8427 73.4416 66.416C73.879 65.9893 74.0976 65.3387 74.0976 64.464V63.28C74.0976 62.4053 73.879 61.7547 73.4416 61.328C73.0043 60.9013 72.439 60.688 71.7456 60.688C71.0523 60.688 70.487 60.9013 70.0496 61.328C69.6123 61.7547 69.3936 62.4053 69.3936 63.28V64.464C69.3936 65.3387 69.6123 65.9893 70.0496 66.416C70.487 66.8427 71.0523 67.056 71.7456 67.056ZM77.5788 68V59.744H78.8588V61.088H78.9228C79.1254 60.6187 79.4081 60.2453 79.7708 59.968C80.1441 59.6907 80.6401 59.552 81.2588 59.552C82.1121 59.552 82.7841 59.8293 83.2748 60.384C83.7761 60.928 84.0268 61.7013 84.0268 62.704V68H82.7468V62.928C82.7468 61.4453 82.1228 60.704 80.8748 60.704C80.6188 60.704 80.3681 60.736 80.1228 60.8C79.8881 60.864 79.6748 60.96 79.4828 61.088C79.2908 61.216 79.1361 61.3813 79.0188 61.584C78.9121 61.776 78.8588 62.0053 78.8588 62.272V68H77.5788ZM89.7765 68.192C89.2112 68.192 88.6992 68.0907 88.2405 67.888C87.7925 67.6853 87.4032 67.3973 87.0725 67.024C86.7525 66.64 86.5018 66.1867 86.3205 65.664C86.1498 65.1307 86.0645 64.5333 86.0645 63.872C86.0645 63.2213 86.1498 62.6293 86.3205 62.096C86.5018 61.5627 86.7525 61.1093 87.0725 60.736C87.4032 60.352 87.7925 60.0587 88.2405 59.856C88.6992 59.6533 89.2112 59.552 89.7765 59.552C90.3312 59.552 90.8272 59.6533 91.2645 59.856C91.7018 60.0587 92.0752 60.3413 92.3845 60.704C92.6938 61.056 92.9285 61.4773 93.0885 61.968C93.2592 62.4587 93.3445 62.9973 93.3445 63.584V64.192H87.4085V64.576C87.4085 64.928 87.4618 65.2587 87.5685 65.568C87.6858 65.8667 87.8458 66.128 88.0485 66.352C88.2618 66.576 88.5178 66.752 88.8165 66.88C89.1258 67.008 89.4725 67.072 89.8565 67.072C90.3792 67.072 90.8325 66.9493 91.2165 66.704C91.6112 66.4587 91.9152 66.1067 92.1285 65.648L93.0405 66.304C92.7738 66.8693 92.3578 67.328 91.7925 67.68C91.2272 68.0213 90.5552 68.192 89.7765 68.192ZM89.7765 60.624C89.4245 60.624 89.1045 60.688 88.8165 60.816C88.5285 60.9333 88.2778 61.104 88.0645 61.328C87.8618 61.552 87.7018 61.8187 87.5845 62.128C87.4672 62.4267 87.4085 62.7573 87.4085 63.12V63.232H91.9685V63.056C91.9685 62.32 91.7658 61.7333 91.3605 61.296C90.9658 60.848 90.4378 60.624 89.7765 60.624ZM104.323 66.656H104.259C104.174 66.848 104.067 67.04 103.939 67.232C103.822 67.4133 103.672 67.5787 103.491 67.728C103.31 67.8667 103.091 67.9787 102.835 68.064C102.579 68.1493 102.28 68.192 101.939 68.192C101.086 68.192 100.408 67.92 99.907 67.376C99.4057 66.8213 99.155 66.0427 99.155 65.04V59.744H100.435V64.816C100.435 66.2987 101.064 67.04 102.323 67.04C102.579 67.04 102.824 67.008 103.059 66.944C103.304 66.88 103.518 66.784 103.699 66.656C103.891 66.528 104.04 66.368 104.147 66.176C104.264 65.9733 104.323 65.7333 104.323 65.456V59.744H105.603V68H104.323V66.656ZM108.329 68V59.744H109.609V61.088H109.673C109.769 60.8747 109.875 60.6773 109.993 60.496C110.121 60.304 110.27 60.1387 110.441 60C110.622 59.8613 110.83 59.7547 111.065 59.68C111.299 59.5947 111.577 59.552 111.897 59.552C112.441 59.552 112.942 59.6853 113.401 59.952C113.859 60.208 114.201 60.6347 114.425 61.232H114.457C114.606 60.784 114.883 60.3947 115.289 60.064C115.705 59.7227 116.265 59.552 116.969 59.552C117.811 59.552 118.467 59.8293 118.937 60.384C119.417 60.928 119.657 61.7013 119.657 62.704V68H118.377V62.928C118.377 62.192 118.233 61.6373 117.945 61.264C117.657 60.8907 117.198 60.704 116.569 60.704C116.313 60.704 116.067 60.736 115.833 60.8C115.609 60.864 115.406 60.96 115.225 61.088C115.043 61.216 114.899 61.3813 114.793 61.584C114.686 61.776 114.633 62.0053 114.633 62.272V68H113.353V62.928C113.353 62.192 113.209 61.6373 112.921 61.264C112.633 60.8907 112.185 60.704 111.577 60.704C111.321 60.704 111.075 60.736 110.841 60.8C110.606 60.864 110.398 60.96 110.217 61.088C110.035 61.216 109.886 61.3813 109.769 61.584C109.662 61.776 109.609 62.0053 109.609 62.272V68H108.329ZM128.298 68C127.818 68 127.471 67.872 127.258 67.616C127.055 67.36 126.927 67.04 126.874 66.656H126.794C126.612 67.168 126.314 67.552 125.898 67.808C125.482 68.064 124.986 68.192 124.41 68.192C123.535 68.192 122.852 67.968 122.362 67.52C121.882 67.072 121.642 66.464 121.642 65.696C121.642 64.9173 121.924 64.32 122.49 63.904C123.066 63.488 123.956 63.28 125.161 63.28H126.794V62.464C126.794 61.8773 126.634 61.4293 126.314 61.12C125.994 60.8107 125.503 60.656 124.842 60.656C124.34 60.656 123.919 60.768 123.578 60.992C123.247 61.216 122.97 61.5147 122.746 61.888L121.978 61.168C122.202 60.72 122.559 60.3413 123.049 60.032C123.54 59.712 124.159 59.552 124.906 59.552C125.908 59.552 126.687 59.7973 127.242 60.288C127.796 60.7787 128.074 61.4613 128.074 62.336V66.88H129.017V68H128.298ZM124.618 67.104C124.938 67.104 125.231 67.0667 125.498 66.992C125.764 66.9173 125.994 66.8107 126.186 66.672C126.378 66.5333 126.527 66.3733 126.634 66.192C126.74 66.0107 126.794 65.8133 126.794 65.6V64.24H125.098C124.362 64.24 123.823 64.3467 123.482 64.56C123.151 64.7733 122.986 65.0827 122.986 65.488V65.824C122.986 66.2293 123.13 66.544 123.418 66.768C123.716 66.992 124.116 67.104 124.618 67.104ZM137.746 68.192C137.191 68.192 136.684 68.0907 136.226 67.888C135.767 67.6853 135.372 67.3973 135.042 67.024C134.722 66.64 134.471 66.1867 134.29 65.664C134.108 65.1307 134.018 64.5333 134.018 63.872C134.018 63.2213 134.108 62.6293 134.29 62.096C134.471 61.5627 134.722 61.1093 135.042 60.736C135.372 60.352 135.767 60.0587 136.226 59.856C136.684 59.6533 137.191 59.552 137.746 59.552C138.3 59.552 138.802 59.6533 139.25 59.856C139.708 60.0587 140.103 60.352 140.434 60.736C140.764 61.1093 141.02 61.5627 141.202 62.096C141.383 62.6293 141.474 63.2213 141.474 63.872C141.474 64.5333 141.383 65.1307 141.202 65.664C141.02 66.1867 140.764 66.64 140.434 67.024C140.103 67.3973 139.708 67.6853 139.25 67.888C138.802 68.0907 138.3 68.192 137.746 68.192ZM137.746 67.056C138.439 67.056 139.004 66.8427 139.442 66.416C139.879 65.9893 140.098 65.3387 140.098 64.464V63.28C140.098 62.4053 139.879 61.7547 139.442 61.328C139.004 60.9013 138.439 60.688 137.746 60.688C137.052 60.688 136.487 60.9013 136.05 61.328C135.612 61.7547 135.394 62.4053 135.394 63.28V64.464C135.394 65.3387 135.612 65.9893 136.05 66.416C136.487 66.8427 137.052 67.056 137.746 67.056ZM143.579 59.744H144.859V61.088H144.923C145.136 60.5653 145.445 60.1813 145.851 59.936C146.267 59.68 146.763 59.552 147.339 59.552C147.851 59.552 148.315 59.6533 148.731 59.856C149.147 60.0587 149.499 60.3467 149.787 60.72C150.085 61.0933 150.309 61.5467 150.459 62.08C150.619 62.6133 150.699 63.2107 150.699 63.872C150.699 64.5333 150.619 65.1307 150.459 65.664C150.309 66.1973 150.085 66.6507 149.787 67.024C149.499 67.3973 149.147 67.6853 148.731 67.888C148.315 68.0907 147.851 68.192 147.339 68.192C146.219 68.192 145.413 67.68 144.923 66.656H144.859V71.2H143.579V59.744ZM146.987 67.04C147.712 67.04 148.283 66.816 148.699 66.368C149.115 65.9093 149.323 65.312 149.323 64.576V63.168C149.323 62.432 149.115 61.84 148.699 61.392C148.283 60.9333 147.712 60.704 146.987 60.704C146.699 60.704 146.421 60.7467 146.155 60.832C145.899 60.9067 145.675 61.0133 145.483 61.152C145.291 61.2907 145.136 61.4613 145.019 61.664C144.912 61.856 144.859 62.064 144.859 62.288V65.36C144.859 65.6267 144.912 65.8667 145.019 66.08C145.136 66.2827 145.291 66.4587 145.483 66.608C145.675 66.7467 145.899 66.8533 146.155 66.928C146.421 67.0027 146.699 67.04 146.987 67.04ZM155.932 59.552C156.753 59.552 157.409 59.7333 157.9 60.096C158.401 60.448 158.775 60.9067 159.02 61.472L157.948 62.032C157.799 61.6053 157.553 61.2747 157.212 61.04C156.871 60.8053 156.444 60.688 155.932 60.688C155.548 60.688 155.212 60.752 154.924 60.88C154.636 60.9973 154.396 61.168 154.204 61.392C154.012 61.6053 153.868 61.8667 153.772 62.176C153.676 62.4747 153.628 62.8053 153.628 63.168V64.576C153.628 65.3013 153.82 65.8987 154.204 66.368C154.599 66.8267 155.175 67.056 155.932 67.056C156.967 67.056 157.713 66.576 158.172 65.616L159.1 66.24C158.855 66.784 158.497 67.232 158.028 67.584C157.559 67.9253 156.977 68.1227 156.284 68.176L156.124 68.976L156.172 69.024C156.375 68.96 156.583 68.928 156.796 68.928C157.105 68.928 157.361 69.0187 157.564 69.2C157.777 69.3813 157.884 69.6427 157.884 69.984C157.884 70.208 157.836 70.4053 157.74 70.576C157.644 70.7467 157.511 70.8853 157.34 70.992C157.18 71.0987 156.993 71.1787 156.78 71.232C156.567 71.2853 156.343 71.312 156.108 71.312C155.671 71.312 155.324 71.2373 155.068 71.088C154.823 70.9493 154.641 70.8053 154.524 70.656L155.132 70C155.228 70.1173 155.356 70.2187 155.516 70.304C155.676 70.4 155.873 70.448 156.108 70.448C156.311 70.448 156.476 70.4053 156.604 70.32C156.743 70.2453 156.812 70.1227 156.812 69.952C156.812 69.8027 156.743 69.6693 156.604 69.552C156.465 69.4453 156.172 69.36 155.724 69.296L155.276 69.232L155.484 68.176C154.449 68.0693 153.649 67.632 153.084 66.864C152.529 66.096 152.252 65.0987 152.252 63.872C152.252 63.2107 152.332 62.6133 152.492 62.08C152.663 61.5467 152.903 61.0933 153.212 60.72C153.532 60.3467 153.921 60.0587 154.38 59.856C154.839 59.6533 155.356 59.552 155.932 59.552ZM166.907 68C166.427 68 166.08 67.872 165.867 67.616C165.664 67.36 165.536 67.04 165.483 66.656H165.403C165.222 67.168 164.923 67.552 164.507 67.808C164.091 68.064 163.595 68.192 163.019 68.192C162.144 68.192 161.462 67.968 160.971 67.52C160.491 67.072 160.251 66.464 160.251 65.696C160.251 64.9173 160.534 64.32 161.099 63.904C161.675 63.488 162.566 63.28 163.771 63.28H165.403V62.464C165.403 61.8773 165.243 61.4293 164.923 61.12C164.603 60.8107 164.112 60.656 163.451 60.656C162.95 60.656 162.528 60.768 162.187 60.992C161.856 61.216 161.579 61.5147 161.355 61.888L160.587 61.168C160.811 60.72 161.168 60.3413 161.659 60.032C162.15 59.712 162.768 59.552 163.515 59.552C164.518 59.552 165.296 59.7973 165.851 60.288C166.406 60.7787 166.683 61.4613 166.683 62.336V66.88H167.627V68H166.907ZM163.227 67.104C163.547 67.104 163.84 67.0667 164.107 66.992C164.374 66.9173 164.603 66.8107 164.795 66.672C164.987 66.5333 165.136 66.3733 165.243 66.192C165.35 66.0107 165.403 65.8133 165.403 65.6V64.24H163.707C162.971 64.24 162.432 64.3467 162.091 64.56C161.76 64.7733 161.595 65.0827 161.595 65.488V65.824C161.595 66.2293 161.739 66.544 162.027 66.768C162.326 66.992 162.726 67.104 163.227 67.104ZM164.763 58.208C164.486 58.208 164.246 58.16 164.043 58.064C163.84 57.968 163.654 57.8773 163.483 57.792C163.227 57.6533 163.008 57.5573 162.827 57.504C162.656 57.44 162.502 57.408 162.363 57.408C162.182 57.408 162.022 57.4453 161.883 57.52C161.744 57.5947 161.595 57.7013 161.435 57.84L160.907 57.2C161.056 56.9867 161.254 56.7947 161.499 56.624C161.744 56.4427 162.054 56.352 162.427 56.352C162.704 56.352 162.944 56.4 163.147 56.496C163.35 56.592 163.536 56.6827 163.707 56.768C163.963 56.9067 164.176 57.008 164.347 57.072C164.528 57.1253 164.688 57.152 164.827 57.152C165.008 57.152 165.168 57.1147 165.307 57.04C165.446 56.9653 165.595 56.8587 165.755 56.72L166.283 57.36C166.134 57.5733 165.936 57.7707 165.691 57.952C165.446 58.1227 165.136 58.208 164.763 58.208ZM172.574 68.192C172.019 68.192 171.512 68.0907 171.054 67.888C170.595 67.6853 170.2 67.3973 169.87 67.024C169.55 66.64 169.299 66.1867 169.118 65.664C168.936 65.1307 168.846 64.5333 168.846 63.872C168.846 63.2213 168.936 62.6293 169.118 62.096C169.299 61.5627 169.55 61.1093 169.87 60.736C170.2 60.352 170.595 60.0587 171.054 59.856C171.512 59.6533 172.019 59.552 172.574 59.552C173.128 59.552 173.63 59.6533 174.078 59.856C174.536 60.0587 174.931 60.352 175.262 60.736C175.592 61.1093 175.848 61.5627 176.03 62.096C176.211 62.6293 176.302 63.2213 176.302 63.872C176.302 64.5333 176.211 65.1307 176.03 65.664C175.848 66.1867 175.592 66.64 175.262 67.024C174.931 67.3973 174.536 67.6853 174.078 67.888C173.63 68.0907 173.128 68.192 172.574 68.192ZM172.574 67.056C173.267 67.056 173.832 66.8427 174.27 66.416C174.707 65.9893 174.926 65.3387 174.926 64.464V63.28C174.926 62.4053 174.707 61.7547 174.27 61.328C173.832 60.9013 173.267 60.688 172.574 60.688C171.88 60.688 171.315 60.9013 170.878 61.328C170.44 61.7547 170.222 62.4053 170.222 63.28V64.464C170.222 65.3387 170.44 65.9893 170.878 66.416C171.315 66.8427 171.88 67.056 172.574 67.056Z" fill="#F2F2FA" fill-opacity="0.7"/>
<rect width="16" height="16" transform="translate(384 53.5)" fill="#132634"/>
<path d="M388 59.5L392 63.5L396 59.5" stroke="#7EDDD3" stroke-width="1.33333" stroke-linecap="round" stroke-linejoin="round"/>
</svg>
